<svg width="44" height="28" viewBox="0 0 44 28" fill="none" xmlns="http://www.w3.org/2000/svg">
<path fill-rule="evenodd" clip-rule="evenodd" d="M5.08577 0C3.73694 0 2.44336 0.528566 1.48959 1.46942C0.535821 2.41027 0 3.68635 0 5.01692V22.5761C0 23.9067 0.535821 25.1828 1.48959 26.1236C2.44336 27.0645 3.73694 27.593 5.08577 27.593H25.4289C26.7777 27.593 28.0713 27.0645 29.0251 26.1236C29.9788 25.1828 30.5146 23.9067 30.5146 22.5761V19.5885L39.5495 24.0436C39.9371 24.2346 40.3678 24.3248 40.8006 24.3056C41.2335 24.2864 41.6541 24.1583 42.0228 23.9337C42.3914 23.709 42.6957 23.3952 42.9068 23.0219C43.1179 22.6487 43.2289 22.2284 43.2291 21.801V5.79203C43.2289 5.36461 43.1179 4.94434 42.9068 4.57109C42.6957 4.19784 42.3914 3.88401 42.0228 3.65935C41.6541 3.4347 41.2335 3.30668 40.8006 3.28745C40.3678 3.26822 39.9371 3.35841 39.5495 3.54947L30.5146 8.00198V5.01692C30.5146 3.68635 29.9788 2.41027 29.0251 1.46942C28.0713 0.528566 26.7777 0 25.4289 0H5.08577ZM30.5146 10.8089V16.7841L40.6862 21.801V5.79203L30.5146 10.8089ZM27.9718 5.01692C27.9718 4.35163 27.7039 3.7136 27.227 3.24317C26.7501 2.77274 26.1033 2.50846 25.4289 2.50846H5.08577C4.41136 2.50846 3.76457 2.77274 3.28768 3.24317C2.8108 3.7136 2.54289 4.35163 2.54289 5.01692V22.5761C2.54289 23.2414 2.8108 23.8794 3.28768 24.3499C3.76457 24.8203 4.41136 25.0846 5.08577 25.0846H25.4289C26.1033 25.0846 26.7501 24.8203 27.227 24.3499C27.7039 23.8794 27.9718 23.2414 27.9718 22.5761V5.01692Z" fill="white"/>
</svg>
