<svg width="37" height="38" viewBox="0 0 37 38" fill="none" xmlns="http://www.w3.org/2000/svg">
<path d="M16.23 22.5345H9.9258C7.53724 22.5345 5.24652 23.4833 3.55755 25.1723C1.86859 26.8612 0.919739 29.152 0.919739 31.5405V33.3417H16.3201M24.3355 9.02538C24.3355 11.1751 23.4815 13.2367 21.9614 14.7568C20.4414 16.2769 18.3797 17.1308 16.23 17.1308C14.0803 17.1308 12.0187 16.2769 10.4986 14.7568C8.97854 13.2367 8.12457 11.1751 8.12457 9.02538C8.12457 6.87568 8.97854 4.81402 10.4986 3.29395C12.0187 1.77389 14.0803 0.919922 16.23 0.919922C18.3797 0.919922 20.4414 1.77389 21.9614 3.29395C23.4815 4.81402 24.3355 6.87568 24.3355 9.02538ZM23.4349 21.6339H36.0434V29.9807C36.0433 30.5793 35.894 31.1684 35.6091 31.6949C35.3242 32.2213 34.9126 32.6685 34.4115 32.9959L29.7391 36.0472L25.0668 32.9959C24.5657 32.6685 24.154 32.2213 23.8691 31.6949C23.5842 31.1684 23.435 30.5793 23.4349 29.9807V21.6339Z" stroke="white" stroke-width="1.83954" stroke-linecap="square"/>
</svg>
