<svg width="43" height="37" viewBox="0 0 43 37" fill="none" xmlns="http://www.w3.org/2000/svg">
<path d="M17.1945 26.9033H0.689819V35.6411H17.1945V26.9033ZM17.1945 26.9033V34.6703M18.1654 35.6411H33.6993V26.9033V32.7285M41.4662 18.1655H24.9615V26.9033H41.4662V18.1655ZM41.4662 18.1655H4.57328M41.4662 18.1655V22.049M0.689819 9.42774H17.1945M0.689819 9.42774V18.1655H17.1945M0.689819 9.42774H38.5536M17.1945 9.42774V18.1655M17.1945 9.42774H33.6993V18.1655H17.1945M24.9615 0.689941H41.4662V9.42774H24.9615M24.9615 0.689941V9.42774M24.9615 0.689941H8.45675M24.9615 9.42774H8.45675V0.689941M24.9615 9.42774V1.66081M8.45675 0.689941H31.7575M36.6119 26.9033H4.57328M8.45675 26.9033V18.1655M28.8449 35.6411H11.3693" stroke="white" stroke-width="1.37965" stroke-linecap="round" stroke-linejoin="round"/>
</svg>
