<svg width="23" height="31" viewBox="0 0 23 31" fill="none" xmlns="http://www.w3.org/2000/svg">
<path d="M0 0H12.3815C15.1962 0 17.8955 1.06594 19.8858 2.96333C21.8761 4.86072 22.9942 7.43413 22.9942 10.1174C22.9942 12.8008 21.8761 15.3742 19.8858 17.2716C17.8955 19.1689 15.1962 20.2349 12.3815 20.2349H3.53757V30.3523H0V0ZM3.53757 3.37248V16.8624H12.3815C14.2579 16.8624 16.0575 16.1518 17.3844 14.8869C18.7112 13.6219 19.4566 11.9063 19.4566 10.1174C19.4566 8.32857 18.7112 6.61296 17.3844 5.34804C16.0575 4.08311 14.2579 3.37248 12.3815 3.37248H3.53757Z" fill="white"/>
</svg>
