<svg width="43" height="35" viewBox="0 0 43 35" fill="none" xmlns="http://www.w3.org/2000/svg">
<path d="M7.256 28.6151C6.6046 28.2551 6.08686 27.7657 5.70279 27.147C5.31872 26.5266 5.12668 25.8315 5.12668 25.0618V15.4148L1.08632 13.2177C0.717478 13.0021 0.443383 12.7466 0.264037 12.4513C0.0846914 12.156 -0.00328989 11.8293 9.39966e-05 11.4709C0.00347788 11.1126 0.0931508 10.7858 0.269113 10.4906C0.445075 10.1953 0.718324 9.93983 1.08886 9.72418L18.3974 0.467848C18.7054 0.300305 19.0226 0.180868 19.3492 0.109538C19.6757 0.0382078 20.0107 0.00171293 20.3542 5.40921e-05C20.6976 -0.00160475 21.0335 0.0348901 21.3617 0.109538C21.69 0.184186 22.0081 0.302793 22.316 0.46536L41.9112 10.8837C42.2699 11.0911 42.5406 11.3507 42.7234 11.6625C42.9078 11.9761 43 12.3145 43 12.6777V26.1144C43 26.466 42.8782 26.7613 42.6345 27.0002C42.3909 27.2391 42.0897 27.3585 41.731 27.3585C41.3723 27.3585 41.0703 27.2391 40.825 27.0002C40.5797 26.7613 40.4587 26.466 40.4621 26.1144V12.8693L35.5817 15.4148V25.0618C35.5817 25.8315 35.3896 26.5266 35.0056 27.147C34.6215 27.7674 34.1046 28.2568 33.4549 28.6151L22.3261 34.5222C22.0114 34.6964 21.69 34.82 21.3617 34.893C21.0335 34.9659 20.6976 35.0016 20.3542 34.9999C20.0107 34.9983 19.6749 34.9626 19.3466 34.893C19.0184 34.8233 18.6969 34.6989 18.3822 34.5197L7.256 28.6151ZM19.7679 20.3914C19.9963 20.5174 20.1994 20.5805 20.377 20.5805C20.5564 20.5805 20.7602 20.5174 20.9887 20.3914L37.6881 11.4709L20.9887 2.60029C20.7619 2.47256 20.5589 2.40869 20.3796 2.40869C20.2002 2.40869 19.9972 2.47256 19.7705 2.60029L3.02021 11.4709L19.7679 20.3914ZM19.7197 32.4146C19.9481 32.5424 20.1596 32.6062 20.3542 32.6062C20.5487 32.6062 20.7602 32.5424 20.9887 32.4146L32.3128 26.4154C32.5734 26.2562 32.7595 26.0729 32.8712 25.8655C32.9828 25.6582 33.0404 25.3944 33.0438 25.0743V16.7834L22.3414 22.5114C22.025 22.6855 21.7035 22.8091 21.377 22.8821C21.0538 22.9534 20.7129 22.9891 20.3542 22.9891C19.9955 22.9891 19.6537 22.9534 19.3289 22.8821C19.004 22.8108 18.6834 22.6864 18.367 22.5089L7.6646 16.7859V25.0768C7.6646 25.3322 7.72128 25.5802 7.83464 25.8207C7.948 26.0596 8.13496 26.2587 8.39552 26.4179L19.7197 32.4146Z" fill="white"/>
</svg>
