<svg width="36" height="40" viewBox="0 0 36 40" fill="none" xmlns="http://www.w3.org/2000/svg">
<path d="M3.56867 39.75C2.57933 39.75 1.73722 39.4026 1.04233 38.7077C0.347445 38.0128 0 37.1714 0 36.1835V12.3998C0 11.4134 0.347445 10.572 1.04233 9.87567C1.73722 9.18078 2.57933 8.83333 3.56867 8.83333H8.83333C8.83333 6.37325 9.6909 4.28638 11.406 2.57271C13.1197 0.857569 15.2066 0 17.6667 0C20.1267 0 22.2144 0.857569 23.9295 2.57271C25.6446 4.28785 26.5015 6.37472 26.5 8.83333H31.7669C32.7533 8.83333 33.5946 9.18078 34.291 9.87567C34.9859 10.5706 35.3333 11.4127 35.3333 12.402V36.1835C35.3333 37.1699 34.9859 38.0113 34.291 38.7077C33.5961 39.4026 32.7547 39.75 31.7669 39.75H3.56867ZM3.56867 37.5417H31.7669C32.1055 37.5417 32.4169 37.4003 32.701 37.1177C32.9851 36.835 33.1265 36.5229 33.125 36.1813V12.402C33.125 12.0619 32.9837 11.7498 32.701 11.4657C32.4183 11.1815 32.1062 11.0402 31.7647 11.0417H3.56867C3.22858 11.0417 2.91647 11.183 2.63233 11.4657C2.34819 11.7483 2.20686 12.0604 2.20833 12.402V36.1835C2.20833 36.5222 2.34967 36.8335 2.63233 37.1177C2.915 37.4018 3.22637 37.5431 3.56646 37.5417M11.0417 8.83333H24.2917C24.2917 6.99306 23.6476 5.42882 22.3594 4.14062C21.0712 2.85243 19.5069 2.20833 17.6667 2.20833C15.8264 2.20833 14.2622 2.85243 12.974 4.14062C11.6858 5.42882 11.0417 6.99306 11.0417 8.83333ZM17.6534 22.0833C19.9251 22.0833 21.9457 21.295 23.7153 19.7182C25.4849 18.1415 26.3653 16.3292 26.3565 14.2813C26.3565 13.9957 26.2534 13.7528 26.0473 13.5525C25.8382 13.3508 25.5769 13.25 25.2633 13.25C25.0027 13.25 24.7687 13.3523 24.5611 13.557C24.355 13.7601 24.2166 14.0089 24.1459 14.3034C23.9104 15.9007 23.1757 17.2287 21.942 18.2872C20.7083 19.3457 19.2787 19.875 17.6534 19.875C16.0281 19.875 14.5963 19.345 13.3582 18.285C12.1201 17.2279 11.3876 15.9007 11.1609 14.3034C11.0902 14.0001 10.9555 13.7483 10.7568 13.5481C10.5595 13.3494 10.3306 13.25 10.07 13.25C9.75494 13.25 9.49215 13.3501 9.28162 13.5503C9.0711 13.752 8.96583 13.9957 8.96583 14.2813C8.96583 16.3277 9.84622 18.14 11.607 19.7182C13.3678 21.295 15.3833 22.0833 17.6534 22.0833Z" fill="white"/>
</svg>
