<svg width="41" height="20" viewBox="0 0 41 20" fill="none" xmlns="http://www.w3.org/2000/svg">
<path d="M40.3176 1.16427C40.3176 0.507023 39.7918 0 39.1534 0H1.16427C0.507022 0 0 0.525801 0 1.16427V3.04213C0 3.13602 0.0375571 3.21114 0.0563357 3.30503C-5.1396e-08 3.49282 -0.0187786 3.69938 0.0375571 3.90595L4.07495 18.8913C4.20641 19.3983 4.67587 19.7551 5.20167 19.7551H35.1723C35.6981 19.7551 36.1676 19.3983 36.299 18.8725L40.2613 3.88717C40.3176 3.68061 40.2989 3.49282 40.2425 3.28625C40.2613 3.19236 40.2989 3.11725 40.2989 3.02336V1.16427H40.3176ZM34.2709 17.4078H6.10304L2.70412 4.76976H37.6135L34.2709 17.4078Z" fill="white"/>
</svg>
