<svg width="414" height="118" viewBox="0 0 414 118" fill="none" xmlns="http://www.w3.org/2000/svg">
<path d="M149.887 94.75V95.3125H146.769V103.609H146.118V95.3125H143V94.75H149.887Z" fill="white"/>
<path d="M157.704 94.75L154.4 100.281H156.494V100.75H154.261V103.609H153.609V100.75H151.329V100.281H153.423L150.119 94.75H150.817L153.935 100L157.053 94.75H157.704Z" fill="white"/>
<path d="M162.311 94.75C164.498 94.75 165.8 95.875 165.8 97.75C165.8 99.625 164.498 100.75 162.311 100.75H159.844V103.656H159.193V94.75H162.311ZM162.311 100.141C164.172 100.141 165.149 99.25 165.149 97.75C165.149 96.25 164.172 95.3125 162.311 95.3125H159.844V100.141H162.311Z" fill="white"/>
<path d="M173.571 95.3594H168.825V99.25H172.641V99.7656H168.825V103.656H168.174V99.7656H166.824V99.25H168.174V94.75H173.525V95.3594H173.571Z" fill="white"/>
<path d="M178.876 98.0312C180.923 98.0312 181.993 98.9688 181.993 100.797C181.993 102.625 180.83 103.656 178.69 103.656H175.386V94.75H176.037V97.9844H178.876V98.0312ZM183.576 103.656V94.75H184.227V103.656H183.576ZM178.69 103.094C180.411 103.094 181.342 102.297 181.342 100.797C181.342 99.2969 180.458 98.5469 178.69 98.5469H175.991V103.094H178.69Z" fill="white"/>
<path d="M193.766 94.75H194.417V103.656H193.766V99.4375H187.95V103.656H187.298V94.75H187.95V98.8281H193.766V94.75Z" fill="white"/>
<path d="M206.888 94.75L203.398 100.562V103.609H202.747V100.609L199.257 94.7969H199.955L203.072 100.047L206.19 94.7969H206.888V94.75Z" fill="white"/>
<path d="M211.913 94.0937C210.797 94.0937 210.005 93.5312 209.959 92.5469H210.471C210.517 93.25 211.076 93.6719 211.913 93.6719C212.751 93.6719 213.309 93.25 213.309 92.5469H213.821C213.821 93.5312 213.03 94.0937 211.913 94.0937ZM208.377 103.656V94.75H209.028V102.578L214.938 94.75H215.496V103.656H214.845V95.875L208.935 103.656H208.377Z" fill="white"/>
<path d="M227.827 103.656L224.523 99.4375H222.429V103.656H221.778V94.75H222.429V98.8281H224.523L227.641 94.75H228.339L225.035 99.0625L228.572 103.609H227.827V103.656Z" fill="white"/>
<path d="M230.712 103.094H236.063V103.656H230.061V94.75H235.877V95.3125H230.712V98.8281H235.319V99.3906H230.712V103.094Z" fill="white"/>
<path d="M247.975 94.75H248.627V103.656H238.204V94.75H238.855V103.047H243.136V94.75H243.787V103.047H248.068V94.75H247.975Z" fill="white"/>
<path d="M252.349 103.094H257.7V103.656H251.744V94.75H257.514V95.3125H252.349V98.8281H256.956V99.3906H252.349V103.094Z" fill="white"/>
<path d="M266.216 94.75H266.867V103.656H266.216V99.4375H260.399V103.656H259.794V94.75H260.446V98.8281H266.262V94.75H266.216Z" fill="white"/>
<path d="M269.985 103.656V94.75H270.636V103.656H269.985Z" fill="white"/>
<path d="M294.274 103.656L291.436 99.4375H289.528V103.656H288.923V99.4375H287.015L284.177 103.656H283.432L286.55 99.0625L283.712 94.75H284.41L287.062 98.8281H288.97V94.75H289.575V98.8281H291.482L294.135 94.75H294.833L291.994 99.0625L295.112 103.656H294.274Z" fill="white"/>
<path d="M296.601 103.656V94.75H297.252V102.578L303.162 94.75H303.72V103.656H303.069V95.875L297.159 103.656H296.601Z" fill="white"/>
<path d="M307.536 94.75H313.213V103.656H312.561V95.3594H308.094L308.001 98.6406C307.861 102.203 307.303 103.75 305.861 103.75C305.674 103.75 305.488 103.75 305.256 103.656L305.349 103.047C305.488 103.094 305.628 103.094 305.768 103.094C306.884 103.094 307.35 101.828 307.489 98.5938L307.536 94.75Z" fill="white"/>
<path d="M320.053 103.703C317.447 103.703 315.539 101.781 315.539 99.2031C315.539 96.625 317.447 94.7031 320.053 94.7031C322.658 94.7031 324.566 96.625 324.566 99.2031C324.566 101.781 322.612 103.703 320.053 103.703ZM320.053 103.094C322.24 103.094 323.915 101.406 323.915 99.1562C323.915 96.9062 322.24 95.2188 320.053 95.2188C317.866 95.2188 316.191 96.8594 316.191 99.1562C316.191 101.453 317.819 103.094 320.053 103.094Z" fill="white"/>
<path d="M330.383 94.0937C329.266 94.0937 328.475 93.5312 328.475 92.5469H328.987C329.033 93.25 329.592 93.6719 330.429 93.6719C331.267 93.6719 331.825 93.25 331.825 92.5469H332.337C332.291 93.5312 331.546 94.0937 330.383 94.0937ZM326.893 103.656V94.75H327.544V102.578L333.454 94.75H334.012V103.656H333.361V95.875L327.451 103.656H326.893Z" fill="white"/>
<path d="M346.297 103.656L342.993 99.4375H340.899V103.656H340.294V94.75H340.945V98.8281H343.039L346.157 94.75H346.855L343.551 99.0625L347.088 103.609H346.297V103.656Z" fill="white"/>
<path d="M352.299 103.703C349.693 103.703 347.786 101.781 347.786 99.2031C347.786 96.625 349.693 94.7031 352.299 94.7031C354.905 94.7031 356.813 96.625 356.813 99.2031C356.813 101.781 354.858 103.703 352.299 103.703ZM352.299 103.094C354.486 103.094 356.161 101.406 356.161 99.1562C356.161 96.9062 354.486 95.2188 352.299 95.2188C350.112 95.2188 348.437 96.8594 348.437 99.1562C348.437 101.453 350.066 103.094 352.299 103.094Z" fill="white"/>
<path d="M367.934 103.656H367.329V96.0625L363.699 102.484H363.374L359.744 96.0625V103.656H359.139V94.75H359.651L363.513 101.641L367.375 94.75H367.887L367.934 103.656Z" fill="white"/>
<path d="M378.171 94.75V103.656H377.519V95.3594H371.656V103.656H371.005V94.75H378.171Z" fill="white"/>
<path d="M382.033 94.75H387.71V103.656H387.058V95.3594H382.591L382.498 98.6406C382.359 102.203 381.8 103.75 380.358 103.75C380.172 103.75 379.985 103.75 379.753 103.656L379.846 103.047C379.985 103.094 380.125 103.094 380.265 103.094C381.381 103.094 381.847 101.828 381.986 98.5938L382.033 94.75Z" fill="white"/>
<path d="M391.432 103.094H396.783V103.656H390.827V94.75H396.597V95.3125H391.432V98.8281H396.039V99.3906H391.432V103.094Z" fill="white"/>
<path d="M404.926 103.656L401.623 99.4375H399.529V103.656H398.924V94.75H399.575V98.8281H401.669L404.787 94.75H405.485L402.181 99.0625L405.717 103.609H404.926V103.656Z" fill="white"/>
<path d="M410.929 103.703C408.37 103.703 406.415 101.781 406.415 99.2031C406.415 96.625 408.323 94.7031 410.929 94.7031C412.139 94.7031 413.255 95.125 414 95.9219L413.628 96.3438C412.883 95.5938 411.999 95.3125 410.975 95.3125C408.742 95.3125 407.113 97 407.113 99.25C407.113 101.5 408.788 103.187 410.975 103.187C411.999 103.187 412.883 102.859 413.628 102.109L414 102.531C413.255 103.281 412.139 103.703 410.929 103.703Z" fill="white"/>
<path d="M276.918 106V92.6406H277.569V106H276.918Z" fill="white"/>
<path d="M193.58 82.0938C190.183 82.0938 187.112 81.3906 184.367 79.9844C181.621 78.5312 179.388 75.7188 177.666 71.5L175.805 66.9531H154.307L147.7 81.7656H143.512L167.336 28.0469H170.965L189.066 71.5C191.114 76.5625 193.906 79.2812 197.488 79.6562V81.6719C196.511 81.9531 195.208 82.0938 193.58 82.0938ZM156.029 63.2969H174.269L165.382 42.0156L156.029 63.2969ZM241.228 82.5625C238.25 82.5625 235.551 81.6719 233.132 79.9375C230.712 78.1562 228.153 75.0625 225.547 70.75L217.451 57.1562H214.24V81.7188H203.677V38.5938C203.677 35.8281 203.305 33.8125 202.56 32.5C201.816 31.1406 200.28 30.4844 198.047 30.4844H197.256V28.0469H219.544C225.128 28.0469 230.2 29.0781 234.667 31.1406C239.134 33.2031 241.368 37.1875 241.368 43.0469C241.368 49.8438 236.994 54.3437 228.292 56.5469L236.761 70.7969C239.925 76.1875 243.276 79.1406 246.765 79.75V81.7656C246.347 82 245.556 82.1875 244.439 82.3281C243.276 82.4687 242.205 82.5625 241.228 82.5625ZM219.079 53.9219C222.104 53.9219 224.663 53.0312 226.757 51.25C228.897 49.4219 229.968 46.5156 229.968 42.625C229.968 38.7344 228.897 35.9219 226.803 34.0938C224.709 32.2656 222.243 31.3281 219.451 31.3281C217.869 31.3281 216.66 31.4219 215.822 31.6563L214.193 31.8906V53.9687H219.079V53.9219ZM297.345 82.0938C293.949 82.0938 290.877 81.3906 288.132 79.9844C285.387 78.5312 283.153 75.7188 281.431 71.5L279.57 66.9531H258.073L251.419 81.7656H247.231L271.055 28.0469H274.684L292.785 71.5C294.833 76.5625 297.624 79.2812 301.207 79.6562V81.6719C300.23 81.9531 298.927 82.0938 297.345 82.0938ZM259.748 63.2969H277.988L269.147 42.0156L259.748 63.2969ZM313.352 81.7656C311.398 81.7656 309.909 81.4844 308.885 80.875C307.861 80.2187 307.117 79.1875 306.698 77.6875C306.279 76.1875 306.047 73.9844 306.047 71.1719V28.0469H316.563V71.1719C316.563 73.9375 316.935 76 317.68 77.3594C318.424 78.6719 319.96 79.3281 322.193 79.3281H322.984V81.7656H313.352ZM332.709 38.5938C332.709 35.8281 332.337 33.8125 331.593 32.5C330.848 31.1406 329.312 30.4844 327.079 30.4844H326.288V28.0469H335.967C337.921 28.0469 339.41 28.375 340.434 29.0312C341.457 29.6875 342.202 30.7656 342.621 32.2656C343.039 33.7188 343.272 35.8281 343.272 38.5938V78.1094H371.144V81.7656H332.756V38.5938H332.709ZM384.685 60.25L370.4 38.5938C368.771 36.25 367.003 34.2344 365.049 32.5C363.141 30.7656 361.373 29.8281 359.651 29.6406V28H368.446C371.191 28 373.657 28.8906 375.891 30.625C378.171 32.3594 380.078 34.4688 381.614 36.9531L392.595 53.6406L408.277 28H413.535L395.201 58.0469V81.7188H384.685V60.25Z" fill="white"/>
<path d="M111 72.8967V73.1753C109.858 73.2798 108.716 73.5584 107.607 73.3843C105.355 73.036 103.757 71.5035 102.615 69.4835C101.375 67.3241 101.081 64.9557 101.473 62.4481C101.571 61.8908 101.636 61.3335 101.734 60.7066C100.624 61.229 99.5803 61.647 98.5688 62.2043C96.7743 63.1446 95.0124 64.085 93.2831 65.0602C91.4885 66.1051 89.8572 67.3589 88.3889 68.8566C86.8554 70.4587 85.5503 72.2698 84.5388 74.2898C83.9189 75.5437 83.299 76.8324 83.2337 78.2952C83.1358 81.0466 84.0168 83.4847 85.485 85.7137C86.6596 87.49 88.291 88.6045 90.2813 88.7786C93.903 89.0921 96.8722 87.6989 98.8951 84.3902C99.8087 82.8926 100.168 81.2208 99.776 79.4445C99.4171 77.8076 98.4057 76.7279 97.1984 75.683C95.5018 74.2202 92.7937 75.9965 92.8589 77.8424C92.8915 78.5041 92.9568 79.1311 93.5115 79.4793C94.1967 79.9669 94.9797 80.1759 95.7302 79.6883C96.1543 79.4097 96.4806 78.9917 96.8395 78.6086C97.0353 80.3849 96.9374 81.5342 96.6438 82.3005C95.2734 85.5047 91.2275 86.3755 88.6499 84.634C87.4101 83.7981 86.5944 82.5443 86.0397 81.0815C85.3545 79.2704 84.9956 77.4593 85.6808 75.5437C86.9206 72.1653 89.0741 69.7273 92.2716 68.4386C93.7399 67.8465 95.2734 67.6724 96.8069 68.0555C98.6993 68.5431 100.233 69.6576 101.603 71.0508C103.3 72.7225 104.442 74.7775 105.388 77.0065C106.138 78.7479 106.302 80.5939 106.073 82.4398C105.845 84.3902 105.192 86.2013 104.213 87.8731C102.81 90.3111 101.081 92.4357 99.0582 94.2468C97.5573 95.5703 95.9586 96.7196 94.4251 97.9734C92.0759 99.8542 89.7593 101.77 87.8669 104.173C87.149 105.044 86.5617 106.089 86.1376 107.168C85.6808 108.248 85.485 109.467 85.1914 110.651C83.9189 109.815 82.7443 108.84 82.1243 107.308C81.5697 105.949 81.3086 104.556 81.5044 103.024C81.7981 100.864 82.6138 99.0531 84.0168 97.4858C84.8325 96.5803 85.8439 95.8141 86.7575 94.9782C86.6923 94.9433 86.5617 94.804 86.3986 94.7692C83.8863 93.8288 81.4065 92.8536 78.8942 91.9829C76.1861 91.0773 73.4127 90.5897 70.5088 90.8335C68.4859 91.0077 66.5282 91.356 64.6684 92.1222C63.5917 92.575 62.4824 92.9581 61.6993 93.9333C60.6226 95.2568 59.8069 96.7544 59.2848 98.4262C58.7954 99.9935 58.5018 101.561 58.7954 103.163C59.1217 104.939 59.9374 106.472 61.3078 107.586C63.6243 109.502 66.1693 110.372 69.0732 109.641C70.5415 109.258 71.8139 108.527 72.7928 107.203C73.8369 105.775 73.8695 104.138 73.739 102.501C73.5106 100.028 71.5529 99.5407 69.9215 99.9935C69.0732 100.237 68.4533 101.247 68.5838 102.083C68.7143 103.198 69.3669 103.894 70.3457 103.999C70.7372 104.034 71.0961 103.999 71.7161 103.999C71.0961 104.661 70.672 105.253 70.1499 105.705C69.269 106.507 68.2249 106.959 67.0829 106.855C65.321 106.715 63.8854 105.845 62.776 104.382C61.9603 103.302 61.5362 102.048 61.6014 100.725C61.6667 99.6452 61.993 98.5655 62.3519 97.5207C63.1676 95.3613 64.5379 93.6895 66.7566 93.0277C68.3554 92.5401 69.9215 92.2963 71.6182 92.4357C73.7716 92.6098 75.6314 93.4457 77.2302 94.9433C79.5141 97.0331 80.0035 99.889 80.0035 102.849C80.0035 104.277 79.6773 105.705 79.3836 107.133C78.731 110.129 77.2628 112.497 74.8157 114.238C72.2381 116.05 69.3342 116.572 66.3977 116.816C65.06 116.92 63.7222 116.816 62.3845 116.677C60.7531 116.502 59.1217 116.189 57.4903 115.98C55.6958 115.736 53.9339 115.457 52.1393 115.318C50.9321 115.214 49.6923 115.283 48.485 115.318C46.56 115.353 44.7981 115.945 43.1993 117.06C42.8078 117.338 42.4489 117.617 41.9921 118C41.8616 117.164 41.6658 116.433 41.6658 115.736C41.6332 113.612 42.3836 111.835 43.8845 110.372C46.2011 108.074 48.8765 107.342 51.9436 107.83C52.4982 107.934 53.0529 108.004 53.6402 108.109V107.934C52.3351 105.044 51.0626 102.118 49.6596 99.2621C48.7134 97.3465 47.4735 95.6399 46.0705 94.0378C44.6675 92.4357 43.0035 91.1122 41.209 90.0325C39.806 89.2314 38.3704 88.3607 36.7064 88.4652C35.8907 88.5 35.1076 88.6741 34.3245 88.8831C32.4321 89.3359 30.7355 90.2763 29.3651 91.7043C27.8316 93.3064 27.1464 95.2916 27.3095 97.66C27.44 99.4014 27.9295 100.969 28.8104 102.362C30.5723 105.113 32.8889 106.715 36.1517 106.019C38.0441 105.636 39.3166 104.277 40.0344 102.432C40.4912 101.247 39.6755 99.4711 38.4683 98.9138C37.7504 98.5655 36.9347 98.5307 36.3475 99.1228C35.8254 99.6452 35.4012 100.377 35.6949 101.178C35.9233 101.839 36.3801 102.432 36.7064 103.024C36.739 103.024 36.6085 103.024 36.478 103.024C34.5529 103.407 32.8889 102.989 31.6164 101.282C30.1482 99.2969 29.985 97.1376 30.8986 94.9085C31.6817 93.0277 33.2152 92.0874 34.9444 91.3908C36.4453 90.7987 37.9788 90.5549 39.5123 91.1122C42.6772 92.2615 44.9286 94.5602 46.2663 97.7993C46.8862 99.2969 46.9841 100.899 46.7884 102.501C46.4947 104.765 45.2875 106.541 43.8519 108.178C42.2857 109.92 40.3933 111.139 38.3378 112.079C36.3801 112.985 34.2919 113.054 32.2363 112.602C29.1367 111.975 26.7222 110.024 24.4383 107.9C22.6764 106.263 21.2407 104.277 19.903 102.223C17.8475 99.1228 15.6614 96.1972 13.0512 93.6198C11.8439 92.4008 10.4083 91.4953 8.74427 91.1122C8.09171 90.9728 7.43916 90.8684 6.72134 90.729C7.40653 89.3707 8.32011 88.2214 9.55997 87.5596C12.366 86.0272 15.1067 86.5148 17.7169 88.2214C19.2831 89.2662 20.4577 90.729 21.4039 92.4705C21.4691 92.3312 21.567 92.1919 21.5997 92.0874C22.4806 89.51 23.4268 87.0024 24.1773 84.3902C24.7319 82.3701 25.1561 80.3152 25.3519 78.2255C25.6129 75.0909 25.3192 71.9563 24.2099 68.961C23.7857 67.7769 23.4268 66.4882 22.4153 65.722C21.306 64.8861 20.164 64.1198 18.9242 63.5277C17.4885 62.8312 15.9224 62.4829 14.291 62.657C12.2028 62.866 10.6041 63.9109 9.39682 65.6523C7.56966 68.3341 6.85185 71.2597 7.92857 74.4988C8.5485 76.3796 9.65785 77.8076 11.5503 78.3997C12.7249 78.7479 13.8668 78.6435 15.0415 78.3997C16.836 78.0165 17.1949 75.6133 16.6728 74.255C16.3792 73.454 15.4004 72.9315 14.6499 73.1057C13.9321 73.2798 12.9859 73.8371 12.9859 74.8123C12.9859 75.2651 12.9533 75.7178 12.9206 76.2751C12.366 75.7178 11.8439 75.2651 11.3871 74.7078C10.5714 73.7674 10.1799 72.5832 10.2778 71.3294C10.4083 70.0756 10.7998 68.8914 11.6155 67.8813C12.7901 66.4185 14.2258 65.513 16.0529 65.6175C16.9665 65.6523 17.9127 65.9658 18.761 66.2792C20.5882 67.0106 22.1217 68.2296 22.9374 70.1452C23.6552 71.8518 23.8836 73.6978 23.8183 75.6133C23.7531 77.3896 23.3942 79.0614 22.5132 80.5939C21.5018 82.3353 20.1967 83.6588 18.3695 84.3902C16.3792 85.1564 14.3563 85.1913 12.3007 84.9475C10.6041 84.7385 9.00529 84.2509 7.47178 83.4846C5.18783 82.3353 3.58907 80.4197 2.47972 78.0165C1.43563 75.7178 1.0441 73.1753 0.913585 70.6677C0.848329 69.2397 0.913583 67.8117 1.04409 66.4185C1.20723 64.6771 1.50089 62.9705 1.69665 61.229C1.92505 59.2786 2.18607 57.3631 2.31658 55.4126C2.41447 54.0891 2.41447 52.7656 2.31658 51.4422C2.2187 50.3276 2.02293 49.1783 1.66402 48.1682C1.23986 47.0189 0.554674 45.9392 0 44.8247C1.46825 44.3719 3.00177 44.2674 4.53527 44.964C8.15697 46.6009 10.082 51.1983 9.39682 55.2037C9.29894 55.8306 9.23369 56.4923 9.10318 57.363C11.9744 55.8306 14.7152 54.4374 17.4233 52.9398C19.2178 51.9646 20.8166 50.6411 22.2848 49.1783C24.2099 47.2279 25.776 44.964 26.8201 42.3867C27.2116 41.3766 27.6032 40.2621 27.5706 39.2172C27.5053 37.8241 27.1464 36.3961 26.6896 35.0726C26.1023 33.366 25.2213 31.8335 23.8183 30.719C22.1217 29.3607 20.1967 28.9427 18.1085 29.3607C15.5635 29.8483 13.4753 31.1021 12.0723 33.4008C11.1261 34.9333 10.6693 36.6399 11.0935 38.5207C11.485 40.3666 12.5617 41.6553 14.0952 42.5608C15.433 43.3619 17.5864 42.317 18.0106 40.7497C18.2716 39.8093 17.8148 38.7296 16.9991 38.3117C16.0203 37.8241 15.0088 38.0679 14.4215 38.9386C14.3236 39.0779 14.2258 39.2521 14.03 39.5307C13.6711 37.8937 13.7363 36.4309 14.4868 35.1423C15.7919 32.8436 18.4674 32.0425 20.9145 32.7739C22.3827 33.2267 23.3942 34.2715 24.1446 35.6647C25.2866 37.7544 25.9065 40.0183 25.1235 42.3518C24.2751 44.8943 22.7416 46.9492 20.5882 48.412C18.5979 49.8052 16.4118 50.3973 14.03 49.8052C11.224 49.1435 9.23369 47.2279 7.56967 44.8595C5.74251 42.2473 4.40476 39.4262 4.76367 36.0478C4.92681 34.6198 5.18783 33.0874 5.77514 31.7987C6.98237 29.1169 8.61376 26.7485 10.7672 24.7981C12.0071 23.6836 13.2795 22.6039 14.552 21.559C15.9224 20.4097 17.3254 19.2952 18.6958 18.1458C19.5767 17.4144 20.425 16.6482 21.2407 15.8471C22.5785 14.5236 23.7857 13.0956 24.5688 11.2845C25.1235 10.0307 25.4171 8.77686 25.4824 7.34888C26.5917 8.01063 27.5053 8.81169 28.1905 9.85655C29.3325 11.6677 29.5609 13.6529 29.1693 15.7078C28.7125 17.9717 27.7011 19.8873 25.9718 21.3501C25.3192 21.9073 24.634 22.4646 23.8183 23.1263C26.5591 24.1015 29.2346 25.0767 31.9101 25.9823C33.9982 26.7137 36.1517 27.1665 38.3704 27.2013C39.4797 27.2013 40.5891 27.0272 41.6984 26.9575C43.2646 26.8878 44.7654 26.4351 46.2011 25.8081C47.0494 25.425 47.963 24.9723 48.6155 24.3453C50.3774 22.5691 51.3889 20.3052 51.8783 17.7627C52.172 16.1606 52.1067 14.5933 51.4215 13.0956C49.7901 9.50826 46.821 8.18477 43.3298 8.01063C42.0247 7.94097 40.7522 8.39374 39.5776 9.15998C37.0326 10.7969 36.5106 13.5484 37.2284 16.1954C37.3589 16.6482 37.7178 17.0661 38.0767 17.4144C38.7619 18.1458 39.6755 17.902 40.5238 17.902C41.3069 17.902 42.09 17.0661 42.1226 16.2651C42.1878 14.9764 41.6332 14.036 40.7522 13.8967C40.2954 13.827 39.806 13.8619 39.1861 13.827C39.6429 13.3046 40.0344 12.8867 40.4259 12.4687C41.8289 10.9711 43.4603 10.7273 45.2875 11.4238C47.4409 12.2249 49.3333 14.5933 49.1376 17.1009C49.0723 18.111 48.8113 19.1558 48.485 20.1311C47.6693 22.4298 46.2011 24.1015 43.8845 24.8678C42.4815 25.3205 41.0459 25.425 39.5776 25.425C37.1631 25.3902 35.1402 24.415 33.4109 22.7084C31.2901 20.6187 30.8007 17.8323 30.8333 14.9416C30.866 13.5484 31.1596 12.1204 31.4533 10.7273C32.269 7.20956 34.1614 4.56257 37.2284 2.92562C39.5776 1.67178 42.1226 1.28867 44.7002 1.11452C45.7769 1.04486 46.8536 1.11452 47.9303 1.25384C49.9859 1.49764 52.0415 1.8111 54.097 2.08973C55.761 2.2987 57.4577 2.47285 59.1543 2.64699C59.5459 2.68182 59.9374 2.64699 60.3289 2.64699C61.3078 2.64699 62.3192 2.75148 63.2654 2.57733C65.2557 2.26387 67.0829 1.49764 68.5838 0H68.7143C68.7796 0.27863 68.8448 0.557261 68.9101 0.835891C69.2363 2.36836 69.1711 3.90083 68.4859 5.25915C66.9198 8.42857 64.3422 10.0307 61.0468 10.2048C59.7743 10.2745 58.4691 9.99587 57.0661 9.89138C58.306 12.5732 59.448 15.3595 60.851 18.0065C61.7972 19.8176 62.9392 21.559 64.179 23.1263C66.0062 25.425 68.2575 27.271 70.9004 28.49C72.1728 29.0821 73.4127 29.4652 74.8483 29.2562C76.9365 28.9427 78.8616 28.2462 80.5908 26.9923C82.418 25.6688 83.4947 23.8229 83.6905 21.5242C83.9515 18.2851 82.8422 15.5685 80.5908 13.4091C79.3836 12.2249 77.8827 11.598 76.2513 11.5283C74.1631 11.4587 72.5644 12.5035 71.3898 14.4191C70.2478 16.3347 71.0309 18.4941 73.0864 19.0165C73.9674 19.2255 74.6199 18.9817 75.0115 18.2503C75.5661 17.2054 75.5335 16.3347 74.881 15.6381C74.6199 15.3595 74.3915 15.0809 74.0979 14.7674C75.0115 14.7674 75.925 14.6281 76.7734 14.8022C78.2743 15.0809 79.2857 16.0561 79.9709 17.5537C80.9171 19.6086 80.8845 21.5939 79.8078 23.5094C78.9921 24.9723 77.6543 25.7733 76.2187 26.4002C74.0653 27.3058 71.9118 27.3406 69.8889 26.052C68.4533 25.1464 67.1482 24.0319 66.0714 22.6387C64.9295 21.1411 64.2769 19.4345 64.0811 17.5885C63.7549 14.6629 64.8316 12.2249 66.6587 10.1004C68.1923 8.32409 70.0194 7.00059 72.0423 5.99056C75.1094 4.45809 78.1437 4.56257 81.1455 5.99056C85.0609 7.90614 88.03 11.0407 90.4771 14.7326C92.6631 17.9717 94.9145 21.1411 97.6552 23.9274C99.1235 25.425 100.82 26.5396 102.876 26.9227C103.332 26.9923 103.789 27.062 104.442 27.1665C103.789 28.0024 103.332 28.7686 102.713 29.3955C100.853 31.2763 98.5362 31.5549 96.187 30.9976C93.381 30.3359 91.358 28.4551 89.8898 25.843C89.8245 25.7037 89.7266 25.634 89.4982 25.3554C88.5847 28.1068 87.6385 30.6842 86.9206 33.2963C86.3334 35.4209 85.8439 37.5803 85.6482 39.7745C85.3545 43.0136 85.746 46.2178 86.9206 49.2828C87.2469 50.1535 87.6711 51.059 88.2258 51.7208C89.694 53.4971 91.6517 54.4723 93.7399 55.0992C95.567 55.6216 97.3942 55.5868 99.1235 54.6464C102.19 52.9398 103.43 49.9793 103.659 46.4965C103.789 44.6157 103.169 42.8394 102.06 41.307C100.82 39.5655 97.59 38.7645 95.6975 39.6352C94.2619 40.2969 93.9683 42.1777 94.2293 43.2574C94.5229 44.4416 95.2408 44.964 96.2522 44.8943C97.2311 44.8247 97.8836 44.1629 98.0468 42.9788C98.112 42.5956 98.0468 42.2125 98.0468 41.7946C99.515 42.7001 101.146 44.755 100.657 47.1234C100.363 48.5514 99.8413 49.7704 98.8624 50.7108C97.4921 52.0342 95.9259 52.6612 94.0335 52.2432C92.4021 51.8949 90.9665 51.1984 89.694 50.0838C87.8669 48.4469 87.2469 46.2178 87.1164 43.8495C86.9859 41.5508 87.2795 39.2869 88.4868 37.232C89.6614 35.2816 91.1949 33.8884 93.3483 33.2615C94.6535 32.8784 95.9912 32.8436 97.3289 32.8436C98.7646 32.8436 100.135 33.157 101.473 33.5401C105.225 34.6547 107.737 37.232 109.042 41.098C109.564 42.6653 109.76 44.3719 110.021 46.0437C110.38 48.4817 110.184 50.9197 109.891 53.3577C109.564 55.8654 109.14 58.3731 108.879 60.8808C108.716 62.4829 108.781 64.1198 108.716 65.7568C108.651 67.3937 108.977 68.9262 109.564 70.389C109.76 71.2597 110.445 72.0608 111 72.8967ZM76.5124 35.8388C74.5547 36.2916 72.597 36.2916 70.6067 35.9433C67.9639 35.4557 65.4189 34.5502 63.0697 33.157C60.2963 31.5201 57.6861 29.6393 55.4674 27.1665C55.3042 26.9923 55.1411 26.8182 55.0106 26.7137C54.3254 27.6192 53.7055 28.49 52.9877 29.2562C51.4868 30.8932 49.7249 32.2166 47.7998 33.157C46.2663 33.9233 44.6676 34.5502 43.0362 35.0726C40.5238 35.8737 37.9788 36.3264 35.336 36.3613H33.6393C33.6067 36.5006 33.6067 36.6051 33.6067 36.6747C34.0309 38.6948 33.9982 40.7497 33.7046 42.7698C33.1825 46.3223 31.8774 49.6311 30.0503 52.6612C28.7125 54.8902 27.2443 57.0148 25.4171 58.8259C25.0582 59.1741 25.1235 59.3831 25.4497 59.6966C26.2981 60.4976 27.2443 61.1942 27.9295 62.1346C28.9735 63.4929 29.985 64.9209 30.8007 66.4534C32.1711 68.961 32.9215 71.7822 33.4436 74.6033C33.7046 76.0313 33.8351 77.5289 33.9656 78.9917C34.0635 79.9669 34.0961 80.9422 34.1614 81.7432C35.5644 81.7432 37 81.6387 38.403 81.778C39.7734 81.8825 41.1437 82.1612 42.4815 82.4746C44.4718 82.9971 46.3642 83.8678 48.0935 85.0519C49.7249 86.1665 51.3563 87.3507 52.9224 88.5697C53.8686 89.3011 54.6843 90.1718 55.5979 91.0077C56.1526 90.2763 56.6746 89.5449 57.2619 88.8831C58.9586 87.0372 60.9489 85.6092 63.1676 84.4947C67.1482 82.4746 71.3572 81.6039 75.7293 81.4646H76.9365C76.8386 80.768 76.6755 80.1411 76.6755 79.5142C76.7081 78.0165 76.7734 76.4841 76.9365 75.0213C77.3607 71.4687 78.731 68.3341 80.493 65.304C81.896 62.866 83.56 60.6021 85.5176 58.5821C78.6005 52.7656 76.7407 44.7202 76.5124 35.8388Z" fill="url(#paint0_linear_222_279)"/>
<defs>
<linearGradient id="paint0_linear_222_279" x1="-56.5408" y1="-76.4701" x2="160.198" y2="153.263" gradientUnits="userSpaceOnUse">
<stop stop-color="#F7A416"/>
<stop offset="1" stop-color="#C22C18"/>
</linearGradient>
</defs>
</svg>
