<svg width="921" height="906" viewBox="0 0 921 906" fill="none" xmlns="http://www.w3.org/2000/svg">
<path d="M921 559.698V561.838C911.525 562.64 902.049 564.779 892.845 563.442C874.165 560.768 860.899 549.002 851.424 533.492C841.137 516.912 838.7 498.728 841.949 479.474C842.761 475.195 843.302 470.917 844.115 466.103C834.91 470.115 826.247 473.324 817.855 477.602C802.965 484.822 788.346 492.042 773.997 499.53C759.108 507.553 745.571 517.179 733.389 528.678C720.665 540.979 709.836 554.885 701.444 570.395C696.3 580.022 691.156 589.916 690.615 601.148C689.803 622.273 697.112 640.992 709.295 658.107C719.041 671.745 732.577 680.302 749.091 681.639C779.141 684.046 803.777 673.349 820.562 647.945C828.142 636.446 831.12 623.61 827.871 609.972C824.893 597.404 816.501 589.114 806.484 581.091C792.407 569.86 769.937 583.498 770.478 597.671C770.749 602.752 771.29 607.565 775.892 610.24C781.578 613.983 788.075 615.588 794.302 611.844C797.821 609.705 800.528 606.496 803.506 603.554C805.13 617.192 804.318 626.017 801.882 631.9C790.511 656.502 756.942 663.188 735.555 649.817C725.267 643.399 718.499 633.772 713.897 622.541C708.212 608.635 705.234 594.73 710.919 580.022C721.206 554.083 739.074 535.364 765.605 525.469C777.787 520.923 790.511 519.586 803.235 522.528C818.937 526.271 831.661 534.829 843.032 545.525C857.109 558.361 866.585 574.139 874.436 591.253C880.662 604.624 882.016 618.797 880.121 632.97C878.226 647.945 872.811 661.851 864.69 674.687C853.048 693.406 838.7 709.718 821.915 723.623C809.462 733.785 796.197 742.61 783.473 752.237C763.981 766.677 744.759 781.385 729.057 799.836C723.101 806.522 718.228 814.544 714.709 822.834C710.919 831.124 709.295 840.483 706.858 849.576C696.3 843.158 686.554 835.67 681.41 823.904C676.808 813.475 674.642 802.778 676.266 791.012C678.703 774.432 685.471 760.527 697.112 748.493C703.88 741.54 712.272 735.657 719.853 729.239C719.311 728.972 718.228 727.902 716.875 727.635C696.029 720.414 675.454 712.927 654.608 706.241C632.138 699.289 609.127 695.545 585.033 697.417C568.248 698.754 552.004 701.428 536.573 707.311C527.639 710.787 518.435 713.729 511.937 721.217C503.004 731.378 496.235 742.877 491.904 755.713C487.843 767.747 485.406 779.78 487.843 792.081C490.55 805.72 497.318 817.486 508.689 826.043C527.91 840.751 549.026 847.436 573.121 841.82C585.303 838.879 595.862 833.263 603.983 823.102C612.646 812.138 612.917 799.569 611.834 787.001C609.939 768.014 593.696 764.27 580.16 767.747C573.121 769.619 567.977 777.374 569.06 783.792C570.143 792.349 575.557 797.697 583.679 798.499C586.928 798.767 589.906 798.499 595.049 798.499C589.906 803.58 586.386 808.126 582.055 811.603C574.745 817.753 566.082 821.23 556.607 820.427C541.988 819.358 530.076 812.672 520.871 801.441C514.103 793.151 510.584 783.524 511.125 773.363C511.667 765.073 514.374 756.783 517.352 748.76C524.12 732.181 535.49 719.345 553.9 714.264C567.165 710.52 580.16 708.648 594.237 709.718C612.105 711.055 627.536 717.473 640.802 728.972C659.752 745.017 663.813 766.945 663.813 789.675C663.813 800.639 661.106 811.603 658.669 822.567C653.255 845.564 641.072 863.749 620.768 877.119C599.381 891.025 575.287 895.036 550.922 896.908C539.822 897.71 528.722 896.908 517.623 895.838C504.086 894.501 490.55 892.094 477.014 890.49C462.124 888.618 447.505 886.479 432.616 885.409C422.599 884.607 412.311 885.142 402.295 885.409C386.322 885.677 371.703 890.223 358.437 898.78C355.189 900.919 352.211 903.058 348.421 906C347.338 899.582 345.713 893.966 345.713 888.618C345.443 872.306 351.669 858.668 364.123 847.436C383.344 829.787 405.543 824.171 430.991 827.915C435.593 828.717 440.196 829.252 445.069 830.054V828.717C434.24 806.522 423.682 784.059 412.041 762.131C404.19 747.423 393.902 734.32 382.261 722.019C370.62 709.718 356.813 699.556 341.923 691.266C330.282 685.116 318.37 678.43 304.563 679.233C297.795 679.5 291.298 680.837 284.801 682.442C269.099 685.918 255.021 693.138 243.651 704.102C230.927 716.403 225.242 731.646 226.595 749.83C227.678 763.201 231.739 775.234 239.048 785.931C253.668 807.057 272.889 819.358 299.961 814.009C315.663 811.068 326.221 800.639 332.177 786.466C335.967 777.374 329.199 763.736 319.183 759.457C313.227 756.783 306.459 756.515 301.586 761.061C297.254 765.073 293.735 770.688 296.171 776.839C298.066 781.92 301.856 786.466 304.563 791.012C304.834 791.012 303.751 791.012 302.668 791.012C286.696 793.953 272.889 790.744 262.331 777.641C250.148 762.398 248.795 745.819 256.375 728.704C262.872 714.264 275.596 707.044 289.944 701.695C302.398 697.149 315.122 695.277 327.846 699.556C354.106 708.381 372.786 726.03 383.885 750.9C389.029 762.398 389.841 774.7 388.217 787.001C385.78 804.383 375.764 818.021 363.852 830.589C350.857 843.96 335.155 853.319 318.1 860.539C301.856 867.492 284.53 868.027 267.474 864.551C241.756 859.737 221.722 844.762 202.772 828.45C188.153 815.881 176.241 800.639 165.141 784.861C148.086 761.061 129.947 738.599 108.289 718.81C98.2725 709.45 86.3606 702.498 72.5538 699.556C67.1393 698.486 61.7249 697.684 55.769 696.615C61.4541 686.185 69.0344 677.361 79.3218 672.28C102.604 660.514 125.345 664.257 147.003 677.361C159.997 685.383 169.743 696.615 177.594 709.985C178.136 708.916 178.948 707.846 179.219 707.044C186.528 687.255 194.379 668.001 200.606 647.945C205.208 632.435 208.727 616.658 210.352 600.613C212.518 576.545 210.081 552.478 200.877 529.481C197.357 520.388 194.379 510.494 185.987 504.611C176.782 498.193 167.307 492.31 157.019 487.764C145.108 482.416 132.113 479.741 118.577 481.078C101.25 482.683 87.985 490.705 77.9682 504.076C62.8077 524.667 56.8519 547.13 65.7857 571.999C70.9295 586.44 80.1341 597.404 95.836 601.95C105.582 604.624 115.057 603.822 124.803 601.95C139.693 599.008 142.671 580.557 138.339 570.127C135.903 563.977 127.781 559.966 121.555 561.303C115.599 562.64 107.748 566.919 107.748 574.406C107.748 577.883 107.477 581.359 107.206 585.638C102.604 581.359 98.2725 577.883 94.4823 573.604C87.7143 566.384 84.4656 557.292 85.2778 547.665C86.3607 538.038 89.6093 528.946 96.3774 521.191C106.123 509.959 118.035 503.007 133.196 503.809C140.776 504.076 148.627 506.483 155.666 508.89C170.826 514.505 183.55 523.865 190.318 538.573C196.274 551.676 198.169 565.849 197.628 580.557C197.086 594.195 194.109 607.031 186.799 618.797C178.407 632.168 167.578 642.329 152.417 647.945C135.903 653.828 119.118 654.096 102.063 652.224C87.985 650.619 74.7196 646.875 61.9956 640.992C43.045 632.168 29.7795 617.46 20.5749 599.008C11.9118 581.359 8.66315 561.838 7.58026 542.584C7.03881 531.62 7.58024 520.656 8.66314 509.959C10.0168 496.589 12.4533 483.485 14.0776 470.115C15.9727 455.139 18.1384 440.432 19.2213 425.456C20.0335 415.295 20.0335 405.133 19.2213 394.971C18.4092 386.414 16.7848 377.589 13.8069 369.834C10.2875 361.009 4.60229 352.72 0 344.162C12.1825 340.686 24.9065 339.884 37.6305 345.232C67.6808 357.8 83.6534 393.099 77.9682 423.852C77.1561 428.665 76.6146 433.746 75.5317 440.431C99.3554 428.665 122.096 417.969 144.566 406.47C159.456 398.982 172.721 388.82 184.904 377.589C200.877 362.614 213.871 345.232 222.534 325.443C225.783 317.688 229.032 309.131 228.761 301.109C228.22 290.412 225.242 279.448 221.452 269.286C216.579 256.183 209.269 244.417 197.628 235.859C183.55 225.43 167.578 222.221 150.251 225.43C129.135 229.174 111.809 238.801 100.168 256.45C92.3166 268.217 88.5265 281.32 92.0459 295.76C95.2946 309.933 104.228 319.828 116.952 326.78C128.052 332.931 145.92 324.909 149.439 312.875C151.605 305.655 147.815 297.365 141.047 294.156C132.925 290.412 124.533 292.284 119.66 298.969C118.847 300.039 118.035 301.376 116.411 303.515C113.433 290.947 113.974 279.715 120.201 269.821C131.03 252.172 153.229 246.021 173.534 251.637C185.716 255.113 194.108 263.136 200.335 273.832C209.81 289.877 214.954 307.259 208.457 325.176C201.418 344.697 188.694 360.475 170.826 371.706C154.312 382.403 136.174 386.949 116.411 382.403C93.1288 377.322 76.6146 362.614 62.8078 344.43C47.6473 324.374 36.5476 302.713 39.5255 276.774C40.8792 265.81 43.045 254.044 47.918 244.149C57.9348 223.558 71.4709 205.374 89.3386 190.399C99.6261 181.842 110.184 173.552 120.743 165.53C132.113 156.705 143.754 148.148 155.124 139.323C162.434 133.707 169.473 127.824 176.241 121.674C187.34 111.512 197.357 100.548 203.855 86.6423C208.457 77.0154 210.893 67.3884 211.435 56.4244C220.639 61.5053 228.22 67.6558 233.905 75.6783C243.38 89.5838 245.275 104.826 242.026 120.604C238.236 137.986 229.844 152.694 215.496 163.925C210.081 168.204 204.396 172.482 197.628 177.563C220.369 185.051 242.568 192.538 264.767 199.491C282.093 205.107 299.961 208.583 318.37 208.851C327.575 208.851 336.78 207.514 345.984 206.979C358.979 206.444 371.432 202.968 383.344 198.154C390.383 195.213 397.963 191.736 403.377 186.923C417.996 173.285 426.389 155.903 430.45 136.381C432.886 124.08 432.345 112.047 426.66 100.548C413.123 73.0041 388.488 62.8424 359.52 61.5053C348.691 60.9705 338.133 64.4469 328.387 70.33C307.271 82.8985 302.939 104.024 308.895 124.348C309.978 127.824 312.956 131.033 315.934 133.707C321.619 139.323 329.199 137.451 336.238 137.451C342.735 137.451 349.233 131.033 349.504 124.883C350.045 114.988 345.443 107.768 338.133 106.698C334.343 106.164 330.282 106.431 325.138 106.164C328.929 102.152 332.177 98.9433 335.426 95.7344C347.067 84.2355 360.603 82.3636 375.764 87.7119C393.631 93.8625 409.333 112.047 407.709 131.3C407.168 139.055 405.002 147.078 402.295 154.566C395.527 172.215 383.344 185.051 364.123 190.934C352.481 194.41 340.57 195.213 328.387 195.213C308.354 194.945 291.569 187.457 277.22 174.354C259.623 158.309 255.563 136.916 255.833 114.721C256.104 104.024 258.541 93.0602 260.977 82.3636C267.745 55.3548 283.447 35.0313 308.895 22.4628C328.387 12.8359 349.504 9.89433 370.891 8.55726C379.825 8.02243 388.758 8.55726 397.692 9.62692C414.748 11.4988 431.803 13.9055 448.859 16.0449C462.666 17.6494 476.743 18.9864 490.821 20.3235C494.07 20.5909 497.318 20.3235 500.567 20.3235C508.689 20.3235 517.081 21.1257 524.932 19.7887C541.446 17.3819 556.607 11.4988 569.06 0H570.143C570.684 2.13932 571.226 4.27863 571.767 6.41795C574.474 18.1842 573.933 29.9504 568.248 40.3796C555.253 64.7143 533.866 77.0154 506.523 78.3524C495.965 78.8872 485.136 76.7479 473.495 75.9457C483.782 96.5366 493.258 117.93 504.899 138.253C512.75 152.159 522.225 165.53 532.512 177.563C547.673 195.213 566.353 209.385 588.281 218.745C598.839 223.291 609.127 226.233 621.039 224.628C638.365 222.221 654.338 216.873 668.686 207.246C683.847 197.084 692.78 182.911 694.405 165.262C696.57 140.393 687.366 119.534 668.686 102.955C658.669 93.8624 646.216 89.049 632.68 88.5142C615.354 87.9793 602.088 96.0018 592.342 110.71C582.867 125.417 589.364 141.997 606.42 146.008C613.729 147.613 619.144 145.741 622.392 140.125C626.995 132.103 626.724 125.417 621.31 120.069C619.144 117.93 617.249 115.79 614.812 113.384C622.392 113.384 629.973 112.314 637.011 113.651C649.465 115.79 657.857 123.278 663.542 134.777C671.393 150.554 671.123 165.797 662.189 180.505C655.421 191.736 644.321 197.887 632.409 202.7C614.542 209.653 596.674 209.92 579.889 200.026C567.977 193.073 557.148 184.516 548.214 173.819C538.739 162.321 533.324 149.217 531.7 135.044C528.993 112.581 537.927 93.8625 553.087 77.5502C565.811 63.912 580.972 53.7503 597.757 45.9953C623.205 34.229 648.382 35.0313 673.288 45.9953C705.775 60.7031 730.411 84.7704 750.715 113.116C768.854 137.986 787.533 162.321 810.274 183.714C822.457 195.213 836.534 203.77 853.59 206.711C857.38 207.246 861.17 207.781 866.585 208.583C861.17 215.001 857.38 220.884 852.236 225.698C836.805 240.138 817.584 242.277 798.092 237.999C774.81 232.918 758.025 218.478 745.842 198.421C745.301 197.352 744.488 196.817 742.593 194.678C735.013 215.803 727.162 235.592 721.206 255.648C716.333 271.96 712.273 288.54 710.648 305.387C708.212 330.257 711.46 354.859 721.206 378.391C723.914 385.077 727.433 392.03 732.035 397.11C744.218 410.749 760.461 418.236 777.787 423.05C792.948 427.061 808.108 426.793 822.457 419.573C847.905 406.47 858.192 383.74 860.087 356.998C861.17 342.558 856.026 328.92 846.822 317.153C836.534 303.783 809.733 297.632 794.031 304.318C782.119 309.398 779.683 323.839 781.848 332.129C784.285 341.221 790.241 345.232 798.633 344.697C806.755 344.162 812.169 339.081 813.523 329.989C814.064 327.048 813.523 324.106 813.523 320.897C825.705 327.85 839.242 343.628 835.181 361.812C832.744 372.776 828.413 382.135 820.291 389.355C808.921 399.517 795.926 404.331 780.224 401.122C766.688 398.447 754.776 393.099 744.218 384.542C729.057 371.973 723.914 354.859 722.831 336.675C721.748 319.025 724.184 301.643 734.201 285.866C743.947 270.891 756.671 260.194 774.539 255.381C785.368 252.439 796.467 252.172 807.567 252.172C819.479 252.172 830.849 254.579 841.949 257.52C873.082 266.077 893.928 285.866 904.757 315.549C909.088 327.583 910.712 340.686 912.878 353.522C915.856 372.241 914.232 390.96 911.795 409.679C909.088 428.933 905.569 448.187 903.403 467.44C902.049 479.741 902.591 492.31 902.049 504.878C901.508 517.447 904.215 529.213 909.088 540.445C910.713 547.13 916.398 553.28 921 559.698ZM634.846 275.169C618.602 278.646 602.359 278.646 585.845 275.972C563.916 272.228 542.8 265.275 523.308 254.579C500.296 242.01 478.638 227.57 460.229 208.583C458.876 207.246 457.522 205.909 456.439 205.107C450.754 212.06 445.61 218.745 439.654 224.628C427.201 237.197 412.582 247.358 396.609 254.579C383.885 260.462 370.62 265.275 357.084 269.286C336.238 275.437 315.122 278.913 293.193 279.181H279.116C278.845 280.25 278.845 281.053 278.845 281.587C282.364 297.097 282.093 312.875 279.657 328.385C275.325 355.661 264.496 381.066 249.336 404.331C238.236 421.445 226.054 437.757 210.893 451.663C207.915 454.337 208.457 455.942 211.164 458.348C218.203 464.499 226.054 469.847 231.739 477.067C240.402 487.496 248.794 498.46 255.563 510.227C266.933 529.481 273.16 551.141 277.491 572.802C279.657 583.766 280.74 595.264 281.823 606.496C282.635 613.983 282.906 621.471 283.447 627.622C295.088 627.622 307 626.819 318.641 627.889C330.012 628.691 341.382 630.831 352.482 633.237C368.996 637.249 384.698 643.934 399.046 653.026C412.582 661.583 426.118 670.675 439.113 680.035C446.964 685.651 453.732 692.336 461.312 698.754C465.915 693.138 470.246 687.522 475.119 682.442C489.197 668.269 505.711 657.305 524.12 648.747C557.148 633.237 592.071 626.552 628.348 625.482H638.365C637.553 620.134 636.199 615.32 636.199 610.507C636.47 599.008 637.011 587.242 638.365 576.011C641.884 548.734 653.255 524.667 667.874 501.402C679.515 482.683 693.322 465.301 709.565 449.791C652.172 405.133 636.741 343.36 634.846 275.169Z" fill="#FF8503"/>
</svg>
