<svg width="1406" height="1391" viewBox="0 0 1406 1391" fill="none" xmlns="http://www.w3.org/2000/svg">
<path d="M1406 859.316V862.601C1391.53 863.832 1377.07 867.117 1363.02 865.064C1334.5 860.958 1314.25 842.893 1299.79 819.081C1284.08 793.625 1280.36 765.707 1285.32 736.146C1286.56 729.577 1287.39 723.008 1288.63 715.618C1274.57 721.776 1261.35 726.703 1248.54 733.272C1225.81 744.358 1203.49 755.443 1181.59 766.939C1158.85 779.256 1138.19 794.036 1119.59 811.69C1100.17 830.576 1083.64 851.926 1070.82 875.739C1062.97 890.519 1055.12 905.71 1054.29 922.954C1053.05 955.389 1064.21 984.128 1082.81 1010.4C1097.69 1031.34 1118.35 1044.48 1143.56 1046.53C1189.44 1050.23 1227.05 1033.81 1252.67 994.803C1264.24 977.149 1268.79 957.442 1263.83 936.503C1259.28 917.206 1246.47 904.479 1231.18 892.162C1209.69 874.918 1175.39 895.857 1176.21 917.617C1176.63 925.417 1177.45 932.808 1184.48 936.913C1193.16 942.661 1203.08 945.125 1212.58 939.377C1217.95 936.092 1222.09 931.165 1226.63 926.649C1229.11 947.588 1227.87 961.137 1224.15 970.169C1206.8 1007.94 1155.55 1018.21 1122.9 997.677C1107.19 987.824 1096.86 973.043 1089.84 955.799C1081.16 934.45 1076.61 913.1 1085.29 890.519C1100.99 850.694 1128.27 821.955 1168.77 806.764C1187.37 799.784 1206.8 797.731 1226.22 802.247C1250.19 807.995 1269.62 821.133 1286.97 837.556C1308.46 857.263 1322.93 881.487 1334.91 907.763C1344.42 928.291 1346.49 950.051 1343.59 971.811C1340.7 994.803 1332.44 1016.15 1320.04 1035.86C1302.27 1064.6 1280.36 1089.64 1254.74 1110.99C1235.73 1126.6 1215.48 1140.14 1196.05 1154.92C1166.29 1177.09 1136.95 1199.68 1112.98 1228.01C1103.89 1238.27 1096.45 1250.59 1091.08 1263.31C1085.29 1276.04 1082.81 1290.41 1079.09 1304.37C1062.97 1294.52 1048.09 1283.02 1040.24 1264.96C1033.22 1248.94 1029.91 1232.52 1032.39 1214.46C1036.11 1189 1046.44 1167.65 1064.21 1149.18C1074.54 1138.5 1087.36 1129.47 1098.93 1119.62C1098.1 1119.2 1096.45 1117.56 1094.38 1117.15C1062.56 1106.07 1031.15 1094.57 999.326 1084.31C965.024 1073.63 929.894 1067.88 893.112 1070.76C867.488 1072.81 842.691 1076.92 819.133 1085.95C805.495 1091.29 791.443 1095.8 781.525 1107.3C767.886 1122.9 757.554 1140.55 750.941 1160.26C744.742 1178.74 741.022 1197.21 744.742 1216.1C748.875 1237.04 759.207 1255.1 776.565 1268.24C805.908 1290.82 838.145 1301.09 874.927 1292.46C893.525 1287.95 909.643 1279.33 922.042 1263.72C935.267 1246.89 935.68 1227.59 934.027 1208.3C931.134 1179.15 906.337 1173.4 885.673 1178.74C874.927 1181.61 867.075 1193.52 868.728 1203.37C870.381 1216.51 878.647 1224.72 891.045 1225.95C896.005 1226.36 900.551 1225.95 908.403 1225.95C900.551 1233.75 895.178 1240.73 888.566 1246.07C877.407 1255.51 864.182 1260.85 849.717 1259.62C827.399 1257.98 809.215 1247.71 795.163 1230.47C784.831 1217.74 779.458 1202.96 780.285 1187.36C781.111 1174.63 785.244 1161.9 789.79 1149.59C800.122 1124.13 817.48 1104.42 845.584 1096.62C865.835 1090.88 885.673 1088 907.164 1089.64C934.44 1091.7 957.998 1101.55 978.249 1119.2C1007.18 1143.84 1013.38 1177.51 1013.38 1212.4C1013.38 1229.24 1009.25 1246.07 1005.53 1262.9C997.26 1298.21 978.662 1326.13 947.666 1346.66C915.016 1368.01 878.233 1374.17 841.038 1377.04C824.093 1378.27 807.148 1377.04 790.203 1375.4C769.539 1373.35 748.875 1369.65 728.211 1367.19C705.48 1364.31 683.162 1361.03 660.432 1359.39C645.14 1358.15 629.435 1358.98 614.144 1359.39C589.76 1359.8 567.442 1366.78 547.191 1379.91C542.232 1383.2 537.686 1386.48 531.9 1391C530.246 1381.15 527.767 1372.52 527.767 1364.31C527.353 1339.27 536.859 1318.33 555.87 1301.09C585.213 1273.99 619.103 1265.37 657.952 1271.11C664.978 1272.35 672.004 1273.17 679.443 1274.4V1272.35C662.911 1238.27 646.793 1203.78 629.022 1170.12C617.036 1147.53 601.332 1127.42 583.56 1108.53C565.789 1089.64 544.711 1074.04 521.981 1061.32C504.209 1051.87 486.025 1041.61 464.947 1042.84C454.615 1043.25 444.696 1045.3 434.777 1047.77C410.807 1053.1 389.316 1064.19 371.958 1081.02C352.533 1099.91 343.854 1123.31 345.921 1151.23C347.574 1171.76 353.773 1190.23 364.932 1206.66C387.249 1239.09 416.593 1257.98 457.921 1249.77C481.892 1245.25 498.01 1229.24 507.102 1207.48C512.888 1193.52 502.556 1172.58 487.265 1166.01C478.172 1161.9 467.84 1161.49 460.401 1168.47C453.788 1174.63 448.416 1183.25 452.135 1192.7C455.028 1200.5 460.814 1207.48 464.947 1214.46C465.36 1214.46 463.707 1214.46 462.054 1214.46C437.67 1218.97 416.593 1214.05 400.474 1193.93C381.877 1170.53 379.81 1145.07 391.382 1118.79C401.301 1096.62 420.725 1085.54 442.63 1077.33C461.641 1070.35 481.065 1067.47 500.49 1074.04C540.578 1087.59 569.095 1114.69 586.04 1152.87C593.892 1170.53 595.132 1189.41 592.653 1208.3C588.933 1234.98 573.641 1255.92 555.457 1275.22C535.619 1295.75 511.649 1310.12 485.611 1321.2C460.814 1331.88 434.364 1332.7 408.327 1327.36C369.065 1319.97 338.482 1296.98 309.551 1271.94C287.234 1252.64 269.049 1229.24 252.105 1205.01C226.068 1168.47 198.377 1133.99 165.315 1103.6C150.023 1089.23 131.838 1078.56 110.761 1074.04C102.495 1072.4 94.2293 1071.17 85.137 1069.53C93.816 1053.51 105.388 1039.97 121.093 1032.16C156.636 1014.1 191.352 1019.85 224.414 1039.97C244.252 1052.28 259.131 1069.53 271.116 1090.05C271.942 1088.41 273.182 1086.77 273.596 1085.54C284.754 1055.16 296.74 1025.6 306.245 994.803C313.271 970.99 318.644 946.767 321.124 922.133C324.43 885.182 320.71 848.231 306.658 812.922C301.286 798.963 296.74 783.772 283.928 774.739C269.876 764.886 255.411 755.853 239.706 748.874C221.522 740.662 201.684 736.557 181.019 738.609C154.569 741.073 134.318 753.39 119.026 773.918C95.8824 805.532 86.7901 840.02 100.429 878.202C108.281 900.373 122.333 917.206 146.303 924.186C161.182 928.291 175.647 927.06 190.525 924.186C213.256 919.67 217.802 891.34 211.189 875.328C207.47 865.885 195.071 859.727 185.566 861.78C176.473 863.832 164.488 870.401 164.488 881.897C164.488 887.235 164.075 892.572 163.661 899.141C156.636 892.572 150.023 887.235 144.237 880.666C133.905 869.58 128.945 855.621 130.185 840.841C131.838 826.06 136.798 812.101 147.13 800.195C162.008 782.951 180.193 772.276 203.337 773.508C214.909 773.918 226.894 777.613 237.64 781.308C260.784 789.93 280.208 804.3 290.54 826.881C299.633 846.999 302.526 868.759 301.699 891.34C300.872 912.279 296.326 931.987 285.168 950.051C272.356 970.58 255.824 986.181 232.68 994.803C207.47 1003.84 181.846 1004.25 155.809 1001.37C134.318 998.909 114.067 993.161 94.6426 984.128C65.7125 970.58 45.4615 947.999 31.4098 919.669C18.1846 892.572 13.2252 862.601 11.5721 833.04C10.7455 816.207 11.572 799.373 13.2252 782.951C15.2916 762.422 19.0112 742.305 21.4909 721.776C24.3839 698.785 27.6902 676.203 29.3434 653.212C30.5832 637.61 30.5832 622.009 29.3434 606.407C28.1035 593.269 25.6238 579.72 21.0776 567.814C15.7049 554.265 7.02587 541.537 0 528.399C18.5979 523.062 38.0224 521.83 57.4468 530.042C103.322 549.338 127.705 603.533 119.026 650.748C117.787 658.138 116.96 665.939 115.307 676.203C151.676 658.138 186.392 641.716 220.695 624.061C243.426 612.566 263.677 596.964 282.275 579.72C306.658 556.729 326.496 530.042 339.721 499.66C344.681 487.753 349.64 474.615 349.227 462.298C348.4 445.875 343.854 429.042 338.068 413.441C330.629 393.323 319.47 375.258 301.699 362.12C280.208 346.108 255.824 341.181 229.374 346.108C197.138 351.856 170.687 366.636 152.916 393.734C140.931 411.798 135.145 431.916 140.517 454.087C145.477 475.847 159.115 491.038 178.54 501.713C195.484 511.156 222.761 498.839 228.134 480.363C231.44 469.278 225.654 456.55 215.322 451.623C202.924 445.875 190.112 448.749 182.673 459.014C181.433 460.656 180.193 462.709 177.713 465.993C173.167 446.697 173.994 429.453 183.499 414.262C200.031 387.164 233.92 377.721 264.917 386.343C283.514 391.681 296.326 403.998 305.832 420.42C320.297 445.054 328.149 471.741 318.23 499.249C307.485 529.221 288.061 553.444 260.784 570.688C235.573 587.11 207.883 594.09 177.713 587.11C142.171 579.31 116.96 556.729 95.8825 528.81C72.7384 498.017 55.7937 464.762 60.3398 424.937C62.4062 408.103 65.7125 390.038 73.1517 374.847C88.4433 343.234 109.108 315.315 136.385 292.324C152.089 279.185 168.208 266.458 184.326 254.141C201.684 240.592 219.455 227.454 236.813 213.905C247.972 205.283 258.717 196.251 269.049 186.808C285.994 171.206 301.286 154.373 311.205 133.024C318.23 118.243 321.95 103.463 322.777 86.6296C336.828 94.4304 348.4 103.873 357.079 116.19C371.544 137.54 374.437 160.942 369.478 185.166C363.692 211.852 350.88 234.434 328.976 251.677C320.71 258.246 312.031 264.816 301.699 272.616C336.415 284.112 370.305 295.608 404.194 306.283C430.644 314.905 457.921 320.242 486.025 320.653C500.076 320.653 514.128 318.6 528.18 317.779C548.018 316.958 567.029 311.62 585.214 304.23C595.959 299.714 607.531 294.376 615.797 286.986C638.114 266.047 650.926 239.36 657.125 209.389C660.845 190.503 660.018 172.027 651.339 154.373C630.675 112.085 593.066 96.4832 548.844 94.4304C532.313 93.6092 516.195 98.9466 501.316 107.979C469.08 127.276 462.467 159.71 471.56 190.914C473.213 196.251 477.759 201.178 482.305 205.283C490.984 213.905 502.556 211.031 513.302 211.031C523.221 211.031 533.139 201.178 533.553 191.735C534.379 176.544 527.353 165.458 516.195 163.816C510.409 162.995 504.209 163.406 496.357 162.995C502.143 156.836 507.102 151.91 512.062 146.983C529.833 129.329 550.497 126.455 573.641 134.666C600.918 144.109 624.889 172.027 622.409 201.588C621.583 213.495 618.276 225.812 614.144 237.308C603.811 264.405 585.213 284.112 555.87 293.145C538.099 298.482 519.914 299.714 501.316 299.714C470.733 299.303 445.109 287.807 423.205 267.69C396.342 243.055 390.142 210.21 390.556 176.133C390.969 159.71 394.688 142.877 398.408 126.455C408.74 84.9873 432.711 53.7842 471.56 34.4876C501.316 19.7072 533.553 15.191 566.202 13.1381C579.841 12.317 593.479 13.1381 607.118 14.7804C633.155 17.6544 659.192 21.3495 685.229 24.634C706.306 27.0974 727.797 29.1502 749.288 31.2031C754.247 31.6136 759.207 31.2031 764.166 31.2031C776.565 31.2031 789.377 32.4348 801.362 30.3819C826.573 26.6868 849.717 17.6544 868.728 0H870.381C871.208 3.28453 872.034 6.56907 872.861 9.8536C876.994 27.9185 876.167 45.9835 867.488 61.9956C847.65 99.3572 815.001 118.243 773.259 120.296C757.141 121.117 740.609 117.833 722.838 116.601C738.543 148.215 753.008 181.06 770.779 212.263C782.764 233.612 797.229 254.141 812.934 272.616C836.078 299.714 864.595 321.474 898.071 335.844C914.189 342.823 929.894 347.339 948.079 344.876C974.529 341.181 998.913 332.97 1020.82 318.189C1043.96 302.588 1057.6 280.828 1060.08 253.73C1063.39 215.548 1049.33 183.523 1020.82 158.068C1005.53 144.109 986.514 136.719 965.85 135.898C939.4 135.076 919.149 147.393 904.271 169.975C889.805 192.556 899.724 218.011 925.761 224.169C936.92 226.633 945.186 223.759 950.145 215.137C957.171 202.82 956.758 192.556 948.492 184.344C945.186 181.06 942.293 177.775 938.573 174.08C950.145 174.08 961.717 172.438 972.463 174.491C991.474 177.775 1004.29 189.271 1012.96 206.926C1024.95 231.149 1024.54 254.551 1010.9 277.133C1000.57 294.376 983.622 303.819 965.437 311.21C938.16 321.884 910.883 322.295 885.259 307.104C867.075 296.429 850.543 283.291 836.905 266.868C822.44 249.214 814.174 229.096 811.694 207.336C807.561 172.849 821.2 144.109 844.344 119.064C863.768 98.1254 886.912 82.5239 912.536 70.6175C951.385 52.5525 989.821 53.7842 1027.84 70.6175C1077.44 93.1987 1115.05 130.15 1146.04 173.67C1173.73 211.852 1202.25 249.214 1236.97 282.059C1255.56 299.714 1277.05 312.852 1303.09 317.368C1308.88 318.189 1314.66 319.01 1322.93 320.242C1314.66 330.096 1308.88 339.128 1301.03 346.518C1277.47 368.689 1248.12 371.973 1218.37 365.404C1182.83 357.604 1157.2 335.433 1138.6 304.641C1137.78 302.998 1136.54 302.177 1133.64 298.893C1122.07 331.327 1110.09 361.709 1100.99 392.502C1093.56 417.546 1087.36 443.001 1084.88 468.867C1081.16 507.05 1086.12 544.822 1100.99 580.952C1105.13 591.216 1110.5 601.891 1117.53 609.692C1136.12 630.63 1160.92 642.126 1187.37 649.517C1210.52 655.675 1233.66 655.264 1255.56 644.179C1294.41 624.061 1310.12 589.163 1313.01 548.107C1314.66 525.936 1306.81 504.997 1292.76 486.932C1277.05 466.404 1236.14 456.961 1212.17 467.225C1193.98 475.026 1190.26 497.196 1193.57 509.924C1197.29 523.883 1206.38 530.042 1219.19 529.22C1231.59 528.399 1239.86 520.599 1241.93 506.639C1242.75 502.123 1241.93 497.607 1241.93 492.68C1260.52 503.355 1281.19 527.578 1274.99 555.497C1271.27 572.33 1264.66 586.7 1252.26 597.785C1234.9 613.387 1215.06 620.777 1191.09 615.85C1170.43 611.744 1152.24 603.533 1136.12 590.395C1112.98 571.098 1105.13 544.822 1103.47 516.904C1101.82 489.806 1105.54 463.119 1120.83 438.896C1135.71 415.904 1155.14 399.481 1182.41 392.091C1198.94 387.575 1215.89 387.164 1232.83 387.164C1251.02 387.164 1268.38 390.86 1285.32 395.376C1332.85 408.514 1364.67 438.896 1381.2 484.469C1387.82 502.944 1390.3 523.062 1393.6 542.769C1398.15 571.509 1395.67 600.249 1391.95 628.988C1387.82 658.549 1382.44 688.11 1379.14 717.671C1377.07 736.557 1377.9 755.853 1377.07 775.15C1376.24 794.447 1380.38 812.512 1387.82 829.755C1390.3 840.02 1398.97 849.463 1406 859.316ZM969.156 422.473C944.359 427.811 919.562 427.811 894.352 423.705C860.875 417.957 828.639 407.282 798.883 390.859C763.753 371.563 730.69 349.392 702.587 320.242C700.52 318.189 698.454 316.136 696.801 314.905C688.122 325.579 680.269 335.844 671.177 344.876C652.166 364.173 629.848 379.774 605.465 390.859C586.04 399.892 565.789 407.282 545.125 413.441C513.302 422.884 481.065 428.221 447.589 428.632H426.098C425.685 430.274 425.685 431.506 425.685 432.327C431.058 456.14 430.644 480.363 426.925 504.176C420.312 546.054 403.781 585.058 380.637 620.777C363.692 647.053 345.094 672.098 321.95 693.447C317.404 697.553 318.23 700.016 322.363 703.711C333.109 713.154 345.094 721.366 353.773 732.451C366.998 748.463 379.81 765.296 390.142 783.361C407.5 812.922 417.006 846.178 423.619 879.434C426.925 896.267 428.578 913.922 430.231 931.165C431.471 942.661 431.884 954.157 432.711 963.6C450.482 963.6 468.667 962.368 486.438 964.011C503.796 965.242 521.154 968.527 538.099 972.222C563.309 978.381 587.28 988.645 609.184 1002.6C629.848 1015.74 650.513 1029.7 670.35 1044.07C682.336 1052.69 692.668 1062.96 704.24 1072.81C711.266 1064.19 717.878 1055.57 725.318 1047.77C746.808 1026.01 772.019 1009.17 800.122 996.035C850.543 972.222 903.857 961.958 959.238 960.315H974.529C973.289 952.104 971.223 944.714 971.223 937.324C971.636 919.669 972.463 901.605 974.529 884.361C979.902 842.483 997.26 805.532 1019.58 769.813C1037.35 741.073 1058.43 714.386 1083.22 690.573C995.607 622.009 972.049 527.168 969.156 422.473Z" fill="url(#paint0_linear_222_427)"/>
<defs>
<linearGradient id="paint0_linear_222_427" x1="-716.184" y1="-901.44" x2="1821.59" y2="1988.95" gradientUnits="userSpaceOnUse">
<stop stop-color="#F7A416"/>
<stop offset="1" stop-color="#C22C18"/>
</linearGradient>
</defs>
</svg>
