<svg width="61" height="60" viewBox="0 0 61 60" fill="none" xmlns="http://www.w3.org/2000/svg">
<path d="M14.3811 1.49219H7.93663C6.22746 1.49219 4.58829 2.15945 3.37972 3.34718C2.17115 4.53491 1.49219 6.14582 1.49219 7.82552V14.1589M46.6033 1.49219H53.0477C54.7569 1.49219 56.3961 2.15945 57.6046 3.34718C58.8132 4.53491 59.4922 6.14582 59.4922 7.82552V14.1589M43.3811 17.3255V23.6589V17.3255ZM17.6033 17.3255V23.6589V17.3255ZM20.8255 42.6589C20.8255 42.6589 24.0477 45.8255 30.4922 45.8255C36.9366 45.8255 40.1589 42.6589 40.1589 42.6589M30.4922 17.3255V33.1589H27.27M14.3811 58.4922H7.93663C6.22746 58.4922 4.58829 57.8249 3.37972 56.6372C2.17115 55.4495 1.49219 53.8386 1.49219 52.1589V45.8255M46.6033 58.4922H53.0477C54.7569 58.4922 56.3961 57.8249 57.6046 56.6372C58.8132 55.4495 59.4922 53.8386 59.4922 52.1589V45.8255" fill="white"/>
<path d="M14.3811 1.49219H7.93663C6.22746 1.49219 4.58829 2.15945 3.37972 3.34718C2.17115 4.53491 1.49219 6.14582 1.49219 7.82552V14.1589M46.6033 1.49219H53.0477C54.7569 1.49219 56.3961 2.15945 57.6046 3.34718C58.8132 4.53491 59.4922 6.14582 59.4922 7.82552V14.1589M43.3811 17.3255V23.6589M17.6033 17.3255V23.6589M20.8255 42.6589C20.8255 42.6589 24.0477 45.8255 30.4922 45.8255C36.9366 45.8255 40.1589 42.6589 40.1589 42.6589M30.4922 17.3255V33.1589H27.27M14.3811 58.4922H7.93663C6.22746 58.4922 4.58829 57.8249 3.37972 56.6372C2.17115 55.4495 1.49219 53.8386 1.49219 52.1589V45.8255M46.6033 58.4922H53.0477C54.7569 58.4922 56.3961 57.8249 57.6046 56.6372C58.8132 55.4495 59.4922 53.8386 59.4922 52.1589V45.8255" stroke="#302A23" stroke-width="2.98437" stroke-linecap="round" stroke-linejoin="round"/>
</svg>
