<svg width="66" height="69" viewBox="0 0 66 69" fill="none" xmlns="http://www.w3.org/2000/svg">
<path d="M55.7101 50.3087L55.7111 50.3126L55.8607 50.707C56.2364 51.6172 56.7999 52.4484 57.5209 53.1474C58.3452 53.946 59.3533 54.5509 60.4645 54.9106L60.4703 54.9125L65.9922 56.6447L60.5587 58.3515L60.5519 58.3554L60.5344 58.3613C59.4222 58.7208 58.414 59.3251 57.5889 60.1245C56.7639 60.924 56.1443 61.8966 55.7771 62.9631L55.7762 62.967L54.0343 68.1382L52.3129 62.9923L52.31 62.9855L52.308 62.9777L52.2313 62.7649C51.859 61.7737 51.2666 60.8697 50.4923 60.1177C49.6689 59.3182 48.6621 58.7123 47.5517 58.3515L47.5157 58.3418L47.4905 58.3311L42.0794 56.6243L47.5352 54.9125L47.5468 54.9086L47.9539 54.759C48.8912 54.3851 49.7411 53.8329 50.4515 53.1347C51.2631 52.3371 51.8715 51.3705 52.2322 50.3126L52.2332 50.3077L53.9653 45.1337L55.7101 50.3087ZM40.9185 0C41.3225 3.85585e-05 41.7163 0.155256 42.0114 0.441049C42.3075 0.728047 42.4806 1.12486 42.4806 1.54464V15.9186L41.4042 15.8302C41.0735 15.803 40.7409 15.799 40.4094 15.8185L39.3563 15.8807V3.08346H33.7344V14.2603C33.7344 14.6801 33.5621 15.077 33.2662 15.3639C32.9711 15.6498 32.5765 15.8049 32.1723 15.8049C31.7682 15.8048 31.3744 15.6497 31.0794 15.3639C30.7834 15.077 30.6111 14.6801 30.6111 14.2603V3.08831H24.9882V10.0188C24.9882 10.4386 24.8158 10.8346 24.52 11.1214C24.2248 11.4074 23.8308 11.5633 23.4271 11.5634C23.0227 11.5634 22.6281 11.4081 22.3332 11.1224C22.037 10.8354 21.865 10.4386 21.865 10.0188V3.08831H3.12329V29.6834H23.4621L22.1127 31.3135C21.8661 31.6112 21.6466 31.93 21.456 32.2665L21.1703 32.7717H3.12329V37.5844C3.12341 38.8502 3.64192 40.0709 4.57564 40.9758C5.51068 41.8818 6.78551 42.3959 8.12055 42.3961H14.6984L14.849 42.4038C15.199 42.4375 15.5329 42.5877 15.7913 42.8381C16.0853 43.1235 16.2601 43.5182 16.2605 43.9388V58.7499C16.2605 60.0161 16.7791 61.2374 17.7129 62.1422L17.8916 62.3074C18.8069 63.1103 20.0058 63.5625 21.2578 63.5625C22.593 63.5624 23.8678 63.0481 24.8027 62.1422L24.9727 61.9693C25.7995 61.0847 26.256 59.9367 26.256 58.7499V43.9271C26.2562 43.5325 26.4079 43.1564 26.6757 42.8731C26.8085 42.7326 26.9567 42.6312 27.0963 42.5593L27.4606 42.3718L29.9632 43.1616L29.9719 43.1645C30.3284 43.2806 30.6647 43.4384 30.9754 43.6298L33.9646 45.4718H29.3783V58.7499C29.3783 60.8553 28.5148 62.8684 26.9885 64.3475C25.4635 65.8251 23.4016 66.6508 21.2578 66.6508C19.1138 66.6508 17.0512 65.8253 15.5261 64.3475C13.9999 62.8684 13.1363 60.8553 13.1363 58.7499V45.4718H8.12055C5.97676 45.4716 3.9148 44.646 2.38982 43.1684C0.863671 41.6894 0 39.6762 0 37.5708V1.54464C0 1.12489 0.172094 0.728052 0.46825 0.441049C0.763365 0.155078 1.1579 0 1.56213 0H40.9185ZM40.8242 21.1839C41.0318 21.184 41.2461 21.2361 41.4401 21.3481L41.5217 21.3996C41.5783 21.4386 41.6297 21.4805 41.6752 21.524L41.7967 21.658L41.8423 21.7173L41.8792 21.7833L41.9094 21.8368L41.955 21.9184L41.9851 22.0068L43.4929 26.5067L43.4967 26.5164L43.4977 26.5183C43.9981 27.9806 44.8455 29.3123 45.975 30.4052C47.034 31.4299 48.3133 32.218 49.7229 32.7134L50.0066 32.8086L50.0095 32.8096L50.0163 32.8115L54.693 34.2843H54.6949L54.7513 34.2959L54.8338 34.3299C55.0235 34.4068 55.2161 34.5394 55.3633 34.7409C55.5168 34.9511 55.5963 35.2023 55.5964 35.4559C55.5964 35.711 55.5163 35.9621 55.3643 36.1709L55.3633 36.1718C55.2134 36.3769 55.008 36.5235 54.7833 36.6032L54.7668 36.609L54.7493 36.6148L50.1076 38.075L50.1086 38.0759L50.1008 38.0788H50.0979C48.5762 38.5654 47.1959 39.3902 46.0663 40.4832C44.9369 41.5762 44.0893 42.9078 43.589 44.3701L43.5871 44.372L42.0774 48.8739L42.0658 48.9069C41.9779 49.1407 41.8199 49.3417 41.614 49.483C41.4134 49.6204 41.1711 49.6986 40.9185 49.6986C40.6674 49.6984 40.4247 49.6214 40.2229 49.483C40.1209 49.4129 40.0278 49.3265 39.9499 49.2265L39.9013 49.1634L39.8625 49.0934L39.8294 49.0332L39.7867 48.9555L38.244 44.373L38.2391 44.3575L38.1245 44.0398C37.5719 42.5853 36.6725 41.2732 35.4967 40.2132L35.2256 39.9771L34.8361 39.6653C33.9099 38.9614 32.8625 38.416 31.74 38.0546L31.739 38.0536L31.7293 38.0507L27.0895 36.5896L27.0759 36.5857L27.0633 36.5808C26.8399 36.5037 26.6294 36.3591 26.4746 36.1476L26.4736 36.1466C26.3452 35.9707 26.262 35.7581 26.2434 35.5297L26.2395 35.4316L26.2434 35.3325C26.2621 35.1042 26.3451 34.8915 26.4736 34.7156C26.6228 34.5116 26.8309 34.3609 27.0652 34.2804L27.0769 34.2765L27.0895 34.2726L31.7293 32.8115L31.7497 32.8047L31.7536 32.8028C33.2527 32.3029 34.6101 31.475 35.7191 30.3848C36.83 29.2927 37.6616 27.9673 38.1517 26.5154L38.1964 26.3842L39.6662 22.0068L39.673 21.9864L39.6808 21.966C39.7686 21.7381 39.9234 21.5397 40.1267 21.3996L40.1286 21.3986C40.3396 21.2539 40.5846 21.1842 40.8242 21.1839Z" fill="black"/>
</svg>
