<svg width="66" height="66" viewBox="0 0 66 66" fill="none" xmlns="http://www.w3.org/2000/svg">
<path d="M58.9412 1.49219H6.71482C3.83044 1.49219 1.49218 3.83044 1.49218 6.71483V58.9412C1.49218 61.8256 3.83044 64.1639 6.71482 64.1639H58.9412C61.8256 64.1639 64.1639 61.8256 64.1639 58.9412V6.71483C64.1639 3.83044 61.8256 1.49219 58.9412 1.49219Z" fill="white"/>
<path d="M39.7915 1.49219L1.49218 39.7916L39.7915 1.49219Z" fill="white"/>
<path d="M64.1639 25.8645L25.8645 64.1639L64.1639 25.8645Z" fill="white"/>
<path d="M60.6821 4.97395L4.97394 60.6821L60.6821 4.97395Z" fill="white"/>
<path d="M11.9375 29.3463L24.1236 41.5324L11.9375 29.3463Z" fill="white"/>
<path d="M41.5324 24.1236L53.7186 36.3098L41.5324 24.1236Z" fill="white"/>
<path d="M39.7915 1.49219L1.49218 39.7916M64.1639 25.8645L25.8645 64.1639M60.6821 4.97395L4.97394 60.6821M11.9375 29.3463L24.1236 41.5324M41.5324 24.1236L53.7186 36.3098M6.71482 1.49219H58.9412C61.8256 1.49219 64.1639 3.83044 64.1639 6.71483V58.9412C64.1639 61.8256 61.8256 64.1639 58.9412 64.1639H6.71482C3.83044 64.1639 1.49218 61.8256 1.49218 58.9412V6.71483C1.49218 3.83044 3.83044 1.49219 6.71482 1.49219Z" stroke="#302A23" stroke-width="2.98437" stroke-linecap="round" stroke-linejoin="round"/>
</svg>
