<svg width="176" height="50" viewBox="0 0 176 50" fill="none" xmlns="http://www.w3.org/2000/svg">
<path d="M63.9224 40.2404V40.4784H62.5994V43.9886H62.323V40.4784H61V40.2404H63.9224Z" fill="white"/>
<path d="M67.2397 40.2404L65.8377 42.5805H66.7263V42.7788H65.7785V43.9886H65.5021V42.7788H64.5345V42.5805H65.4231L64.0211 40.2404H64.3173L65.6403 42.4615L66.9633 40.2404H67.2397Z" fill="white"/>
<path d="M69.1945 40.2404C70.1226 40.2404 70.6755 40.7163 70.6755 41.5096C70.6755 42.3029 70.1226 42.7788 69.1945 42.7788H68.148V44.0084H67.8716V40.2404H69.1945ZM69.1945 42.521C69.9844 42.521 70.399 42.1442 70.399 41.5096C70.399 40.875 69.9844 40.4784 69.1945 40.4784H68.148V42.521H69.1945Z" fill="white"/>
<path d="M73.973 40.4982H71.959V42.1442H73.5781V42.3624H71.959V44.0084H71.6825V42.3624H71.1099V42.1442H71.6825V40.2404H73.9533V40.4982H73.973Z" fill="white"/>
<path d="M76.2241 41.6286C77.0929 41.6286 77.547 42.0252 77.547 42.7987C77.547 43.5721 77.0534 44.0084 76.1451 44.0084H74.7431V40.2404H75.0196V41.6088H76.2241V41.6286ZM78.2184 44.0084V40.2404H78.4948V44.0084H78.2184ZM76.1451 43.7704C76.8757 43.7704 77.2706 43.4333 77.2706 42.7987C77.2706 42.1641 76.8954 41.8468 76.1451 41.8468H74.9998V43.7704H76.1451Z" fill="white"/>
<path d="M82.5428 40.2404H82.8192V44.0084H82.5428V42.2236H80.0745V44.0084H79.7981V40.2404H80.0745V41.9657H82.5428V40.2404Z" fill="white"/>
<path d="M88.1111 40.2404L86.6302 42.6995V43.9886H86.3537V42.7193L84.8728 40.2602H85.169L86.4919 42.4814L87.8149 40.2602H88.1111V40.2404Z" fill="white"/>
<path d="M90.2436 39.9627C89.7697 39.9627 89.4341 39.7248 89.4143 39.3083H89.6315C89.6513 39.6058 89.8882 39.7843 90.2436 39.7843C90.5991 39.7843 90.836 39.6058 90.836 39.3083H91.0532C91.0532 39.7248 90.7175 39.9627 90.2436 39.9627ZM88.743 44.0084V40.2404H89.0194V43.5523L91.5271 40.2404H91.7641V44.0084H91.4876V40.7163L88.9799 44.0084H88.743Z" fill="white"/>
<path d="M96.9967 44.0084L95.5948 42.2236H94.7062V44.0084H94.4298V40.2404H94.7062V41.9657H95.5948L96.9178 40.2404H97.2139L95.812 42.0649L97.3127 43.9886H96.9967V44.0084Z" fill="white"/>
<path d="M98.221 43.7704H100.492V44.0084H97.9445V40.2404H100.413V40.4784H98.221V41.9657H100.176V42.2037H98.221V43.7704Z" fill="white"/>
<path d="M105.547 40.2404H105.823V44.0084H101.4V40.2404H101.677V43.7506H103.493V40.2404H103.77V43.7506H105.586V40.2404H105.547Z" fill="white"/>
<path d="M107.403 43.7704H109.674V44.0084H107.146V40.2404H109.595V40.4784H107.403V41.9657H109.358V42.2037H107.403V43.7704Z" fill="white"/>
<path d="M113.287 40.2404H113.564V44.0084H113.287V42.2236H110.819V44.0084H110.562V40.2404H110.839V41.9657H113.307V40.2404H113.287Z" fill="white"/>
<path d="M114.887 44.0084V40.2404H115.163V44.0084H114.887Z" fill="white"/>
<path d="M125.194 44.0084L123.989 42.2236H123.18V44.0084H122.923V42.2236H122.113L120.909 44.0084H120.593L121.916 42.0649L120.712 40.2404H121.008L122.133 41.9657H122.943V40.2404H123.2V41.9657H124.009L125.135 40.2404H125.431L124.226 42.0649L125.549 44.0084H125.194Z" fill="white"/>
<path d="M126.181 44.0084V40.2404H126.458V43.5523L128.965 40.2404H129.202V44.0084H128.926V40.7163L126.418 44.0084H126.181Z" fill="white"/>
<path d="M130.821 40.2404H133.23V44.0084H132.954V40.4982H131.058L131.019 41.8864C130.96 43.3936 130.723 44.0481 130.111 44.0481C130.032 44.0481 129.953 44.0481 129.854 44.0084L129.893 43.7506C129.953 43.7704 130.012 43.7704 130.071 43.7704C130.545 43.7704 130.742 43.235 130.802 41.8666L130.821 40.2404Z" fill="white"/>
<path d="M136.133 44.0282C135.027 44.0282 134.218 43.2151 134.218 42.1244C134.218 41.0337 135.027 40.2206 136.133 40.2206C137.239 40.2206 138.048 41.0337 138.048 42.1244C138.048 43.2151 137.219 44.0282 136.133 44.0282ZM136.133 43.7704C137.061 43.7704 137.772 43.0565 137.772 42.1046C137.772 41.1526 137.061 40.4387 136.133 40.4387C135.205 40.4387 134.494 41.1328 134.494 42.1046C134.494 43.0763 135.185 43.7704 136.133 43.7704Z" fill="white"/>
<path d="M140.517 39.9627C140.043 39.9627 139.707 39.7248 139.707 39.3083H139.924C139.944 39.6058 140.181 39.7843 140.536 39.7843C140.892 39.7843 141.129 39.6058 141.129 39.3083H141.346C141.326 39.7248 141.01 39.9627 140.517 39.9627ZM139.036 44.0084V40.2404H139.312V43.5523L141.82 40.2404H142.057V44.0084H141.78V40.7163L139.273 44.0084H139.036Z" fill="white"/>
<path d="M147.27 44.0084L145.868 42.2236H144.979V44.0084H144.723V40.2404H144.999V41.9657H145.888L147.211 40.2404H147.507L146.105 42.0649L147.605 43.9886H147.27V44.0084Z" fill="white"/>
<path d="M149.817 44.0282C148.711 44.0282 147.902 43.2151 147.902 42.1244C147.902 41.0337 148.711 40.2206 149.817 40.2206C150.923 40.2206 151.732 41.0337 151.732 42.1244C151.732 43.2151 150.903 44.0282 149.817 44.0282ZM149.817 43.7704C150.745 43.7704 151.456 43.0565 151.456 42.1046C151.456 41.1526 150.745 40.4387 149.817 40.4387C148.889 40.4387 148.178 41.1328 148.178 42.1046C148.178 43.0763 148.869 43.7704 149.817 43.7704Z" fill="white"/>
<path d="M156.452 44.0084H156.195V40.7957L154.655 43.5126H154.516L152.976 40.7957V44.0084H152.72V40.2404H152.937L154.576 43.1556L156.215 40.2404H156.432L156.452 44.0084Z" fill="white"/>
<path d="M160.796 40.2404V44.0084H160.519V40.4982H158.031V44.0084H157.755V40.2404H160.796Z" fill="white"/>
<path d="M162.435 40.2404H164.844V44.0084H164.567V40.4982H162.672L162.632 41.8864C162.573 43.3936 162.336 44.0481 161.724 44.0481C161.645 44.0481 161.566 44.0481 161.467 44.0084L161.507 43.7506C161.566 43.7704 161.625 43.7704 161.684 43.7704C162.158 43.7704 162.356 43.235 162.415 41.8666L162.435 40.2404Z" fill="white"/>
<path d="M166.423 43.7704H168.694V44.0084H166.167V40.2404H168.615V40.4784H166.423V41.9657H168.378V42.2037H166.423V43.7704Z" fill="white"/>
<path d="M172.15 44.0084L170.748 42.2236H169.859V44.0084H169.602V40.2404H169.879V41.9657H170.767L172.09 40.2404H172.387L170.985 42.0649L172.485 43.9886H172.15V44.0084Z" fill="white"/>
<path d="M174.697 44.0282C173.611 44.0282 172.781 43.2151 172.781 42.1244C172.781 41.0337 173.591 40.2206 174.697 40.2206C175.21 40.2206 175.684 40.399 176 40.7362L175.842 40.9147C175.526 40.5974 175.151 40.4784 174.717 40.4784C173.769 40.4784 173.078 41.1923 173.078 42.1442C173.078 43.0961 173.788 43.8101 174.717 43.8101C175.151 43.8101 175.526 43.6713 175.842 43.354L176 43.5324C175.684 43.8498 175.21 44.0282 174.697 44.0282Z" fill="white"/>
<path d="M117.829 45V39.3479H118.105V45H117.829Z" fill="white"/>
<path d="M82.4638 34.8858C81.0223 34.8858 79.7191 34.5883 78.5541 33.9934C77.3891 33.3786 76.4413 32.1887 75.7107 30.4038L74.9208 28.4802H65.7982L62.9943 34.747H61.2172L71.3271 12.0198H72.8673L80.5484 30.4038C81.4172 32.5457 82.602 33.6959 84.1224 33.8546V34.7073C83.7078 34.8263 83.1549 34.8858 82.4638 34.8858ZM66.5288 26.9333H74.2692L70.4978 17.9297L66.5288 26.9333ZM102.684 35.0841C101.42 35.0841 100.275 34.7073 99.2478 33.9736C98.221 33.2199 97.135 31.9111 96.0292 30.0865L92.5934 24.3353H91.2309V34.7272H86.7486V16.482C86.7486 15.3119 86.5907 14.4591 86.2747 13.9038C85.9588 13.3287 85.3072 13.0511 84.3594 13.0511H84.0237V12.0198H93.482C95.8515 12.0198 98.0038 12.4561 99.8994 13.3287C101.795 14.2013 102.743 15.887 102.743 18.366C102.743 21.2416 100.887 23.1454 97.1942 24.0775L100.788 30.1064C102.131 32.387 103.552 33.6364 105.033 33.8942V34.747C104.856 34.8462 104.52 34.9255 104.046 34.985C103.552 35.0445 103.098 35.0841 102.684 35.0841ZM93.2845 22.9669C94.568 22.9669 95.654 22.5901 96.5426 21.8365C97.4509 21.0631 97.905 19.8335 97.905 18.1875C97.905 16.5415 97.4509 15.3516 96.5623 14.5781C95.6738 13.8047 94.6272 13.4081 93.4425 13.4081C92.7711 13.4081 92.2577 13.4477 91.9023 13.5469L91.2112 13.646V22.9868H93.2845V22.9669ZM126.497 34.8858C125.056 34.8858 123.752 34.5883 122.587 33.9934C121.422 33.3786 120.475 32.1887 119.744 30.4038L118.954 28.4802H109.832L107.008 34.747H105.231L115.341 12.0198H116.881L124.562 30.4038C125.431 32.5457 126.616 33.6959 128.136 33.8546V34.7073C127.721 34.8263 127.168 34.8858 126.497 34.8858ZM110.542 26.9333H118.283L114.531 17.9297L110.542 26.9333ZM133.29 34.747C132.46 34.747 131.828 34.628 131.394 34.3702C130.96 34.0925 130.644 33.6562 130.466 33.0216C130.288 32.387 130.19 31.4549 130.19 30.265V12.0198H134.652V30.265C134.652 31.4351 134.81 32.3077 135.126 32.8828C135.442 33.4381 136.094 33.7157 137.041 33.7157H137.377V34.747H133.29ZM141.504 16.482C141.504 15.3119 141.346 14.4591 141.03 13.9038C140.714 13.3287 140.062 13.0511 139.115 13.0511H138.779V12.0198H142.886C143.715 12.0198 144.347 12.1587 144.782 12.4363C145.216 12.7139 145.532 13.1701 145.71 13.8047C145.888 14.4195 145.986 15.3119 145.986 16.482V33.2001H157.814V34.747H141.524V16.482H141.504ZM163.56 25.6442L157.498 16.482C156.807 15.4904 156.057 14.6376 155.227 13.9038C154.418 13.1701 153.667 12.7734 152.937 12.6941V12H156.669C157.834 12 158.88 12.3768 159.828 13.1106C160.796 13.8444 161.605 14.7368 162.257 15.7879L166.917 22.848L173.571 12H175.803L168.023 24.7121V34.7272H163.56V25.6442Z" fill="white"/>
<path d="M47 30.8884V31.0065C46.5165 31.0508 46.0329 31.1688 45.5632 31.095C44.6099 30.9475 43.933 30.2981 43.4494 29.4422C42.9245 28.5272 42.8001 27.5236 42.9659 26.461C43.0074 26.2249 43.035 25.9888 43.0764 25.7231C42.6067 25.9445 42.1646 26.1216 41.7363 26.3577C40.9765 26.7562 40.2305 27.1547 39.4982 27.5679C38.7384 28.0106 38.0476 28.5419 37.4259 29.1765C36.7766 29.8554 36.224 30.6228 35.7957 31.4788C35.5332 32.01 35.2707 32.5561 35.2431 33.1759C35.2016 34.3418 35.5747 35.3749 36.1964 36.3194C36.6937 37.072 37.3845 37.5443 38.2272 37.6181C39.7607 37.7509 41.0179 37.1606 41.8745 35.7586C42.2613 35.124 42.4133 34.4156 42.2475 33.6629C42.0955 32.9693 41.6673 32.5118 41.1561 32.0691C40.4377 31.4492 39.291 32.2019 39.3186 32.9841C39.3325 33.2645 39.3601 33.5301 39.5949 33.6777C39.8851 33.8843 40.2166 33.9728 40.5344 33.7662C40.714 33.6482 40.8521 33.4711 41.0041 33.3087C41.087 34.0614 41.0456 34.5484 40.9212 34.8731C40.341 36.2308 38.6279 36.5998 37.5364 35.8619C37.0115 35.5077 36.6661 34.9764 36.4312 34.3566C36.1411 33.5891 35.9891 32.8217 36.2793 32.01C36.8042 30.5785 37.716 29.5455 39.07 28.9994C39.6917 28.7485 40.341 28.6747 40.9903 28.8371C41.7916 29.0437 42.4409 29.5159 43.0212 30.1063C43.7396 30.8146 44.2231 31.6854 44.6238 32.6299C44.9415 33.3678 45.0106 34.1499 44.9139 34.9321C44.8172 35.7586 44.5409 36.526 44.1264 37.2344C43.5323 38.2674 42.8001 39.1677 41.9436 39.9351C41.3081 40.4959 40.6311 40.9829 39.9818 41.5142C38.9871 42.3111 38.0062 43.1228 37.2049 44.1411C36.9009 44.51 36.6523 44.9528 36.4727 45.4103C36.2793 45.8678 36.1964 46.3843 36.072 46.8861C35.5332 46.5319 35.0359 46.1187 34.7734 45.4693C34.5385 44.8937 34.428 44.3034 34.5109 43.6541C34.6352 42.7391 34.9806 41.9717 35.5747 41.3076C35.9201 40.9239 36.3483 40.5992 36.7352 40.245C36.7075 40.2302 36.6523 40.1712 36.5832 40.1564C35.5194 39.758 34.4694 39.3447 33.4056 38.9758C32.259 38.5921 31.0847 38.3855 29.8551 38.4888C28.9985 38.5626 28.1696 38.7102 27.3821 39.0348C26.9262 39.2267 26.4565 39.389 26.1249 39.8022C25.669 40.3631 25.3236 40.9976 25.1026 41.706C24.8954 42.3701 24.771 43.0342 24.8954 43.7131C25.0335 44.4658 25.3789 45.1151 25.9591 45.5874C26.94 46.3991 28.0176 46.768 29.2472 46.4581C29.8689 46.2957 30.4077 45.9858 30.8222 45.425C31.2643 44.82 31.2781 44.1263 31.2228 43.4327C31.1261 42.3849 30.2972 42.1783 29.6064 42.3701C29.2472 42.4734 28.9847 42.9014 29.04 43.2556C29.0952 43.7279 29.3715 44.023 29.786 44.0673C29.9518 44.0821 30.1038 44.0673 30.3663 44.0673C30.1038 44.3477 29.9242 44.5986 29.7031 44.7904C29.3301 45.1299 28.888 45.3217 28.4045 45.2775C27.6584 45.2184 27.0506 44.8495 26.5808 44.2296C26.2355 43.7721 26.0559 43.2409 26.0835 42.6801C26.1111 42.2226 26.2493 41.7651 26.4012 41.3223C26.7466 40.4073 27.3269 39.6989 28.2663 39.4185C28.9433 39.2119 29.6064 39.1086 30.3248 39.1677C31.2366 39.2414 32.0241 39.5956 32.7011 40.2302C33.6681 41.1157 33.8754 42.3259 33.8754 43.5803C33.8754 44.1854 33.7372 44.7904 33.6129 45.3955C33.3366 46.6647 32.7149 47.6682 31.6787 48.4061C30.5873 49.1736 29.3577 49.3949 28.1143 49.4982C27.5479 49.5425 26.9815 49.4982 26.4151 49.4392C25.7243 49.3654 25.0335 49.2326 24.3427 49.144C23.5829 49.0407 22.8369 48.9227 22.077 48.8636C21.5658 48.8194 21.0409 48.8489 20.5297 48.8636C19.7146 48.8784 18.9685 49.1293 18.2916 49.6015C18.1258 49.7196 17.9738 49.8377 17.7804 50C17.7252 49.6458 17.6423 49.3359 17.6423 49.0407C17.6285 48.1405 17.9462 47.3878 18.5817 46.768C19.5626 45.794 20.6955 45.4841 21.9941 45.6907C22.229 45.7349 22.4638 45.7645 22.7125 45.8087V45.735C22.1599 44.51 21.6211 43.2704 21.027 42.0602C20.6264 41.2485 20.1014 40.5254 19.5073 39.8465C18.9133 39.1677 18.2087 38.6068 17.4489 38.1494C16.8548 37.8099 16.2469 37.441 15.5423 37.4852C15.1969 37.5 14.8654 37.5738 14.5338 37.6623C13.7325 37.8542 13.0141 38.2527 12.4339 38.8577C11.7845 39.5366 11.4944 40.3778 11.5635 41.3813C11.6188 42.1192 11.826 42.7834 12.199 43.3737C12.945 44.5396 13.9259 45.2184 15.3075 44.9233C16.1088 44.7609 16.6476 44.1854 16.9515 43.4032C17.1449 42.9014 16.7995 42.1488 16.2884 41.9126C15.9844 41.7651 15.639 41.7503 15.3904 42.0012C15.1693 42.2226 14.9897 42.5325 15.1141 42.8719C15.2108 43.1523 15.4042 43.4032 15.5423 43.6541C15.5561 43.6541 15.5009 43.6541 15.4456 43.6541C14.6305 43.8164 13.9259 43.6393 13.3871 42.9162C12.7654 42.075 12.6964 41.16 13.0832 40.2155C13.4148 39.4185 14.0641 39.0201 14.7963 38.7249C15.4318 38.474 16.0811 38.3707 16.7305 38.6068C18.0705 39.0939 19.0238 40.0679 19.5902 41.4404C19.8527 42.075 19.8942 42.7538 19.8113 43.4327C19.6869 44.392 19.1758 45.1446 18.5679 45.8383C17.9048 46.5762 17.1035 47.0927 16.2331 47.4911C15.4042 47.8749 14.52 47.9044 13.6496 47.7125C12.3372 47.4469 11.3148 46.6204 10.3477 45.7202C9.60171 45.0266 8.99383 44.1854 8.4274 43.3146C7.55703 42.0012 6.6314 40.7615 5.52616 39.6694C5.01499 39.1529 4.40711 38.7692 3.70253 38.6068C3.42622 38.5478 3.14991 38.5035 2.84597 38.4445C3.1361 37.869 3.52293 37.3819 4.04791 37.1015C5.23604 36.4522 6.39653 36.6588 7.50176 37.3819C8.1649 37.8247 8.66226 38.4445 9.06291 39.1824C9.09054 39.1234 9.13198 39.0643 9.1458 39.0201C9.51881 37.928 9.91946 36.8654 10.2372 35.7586C10.4721 34.9026 10.6517 34.0319 10.7346 33.1464C10.8451 31.8182 10.7208 30.49 10.251 29.2208C10.0714 28.719 9.91946 28.173 9.49118 27.8483C9.02146 27.4941 8.53792 27.1694 8.01294 26.9185C7.40506 26.6234 6.74192 26.4758 6.05115 26.5496C5.16696 26.6381 4.49001 27.0809 3.97884 27.8188C3.20517 28.9551 2.90123 30.1948 3.35714 31.5673C3.61964 32.3642 4.08936 32.9693 4.89065 33.2202C5.38801 33.3678 5.87155 33.3235 6.3689 33.2202C7.12875 33.0579 7.28072 32.0396 7.05967 31.464C6.93533 31.1246 6.52087 30.9032 6.20312 30.977C5.89918 31.0508 5.49853 31.2869 5.49853 31.7001C5.49853 31.892 5.48472 32.0838 5.4709 32.32C5.23604 32.0838 5.01499 31.892 4.82158 31.6558C4.47619 31.2574 4.31041 30.7556 4.35185 30.2243C4.40711 29.693 4.5729 29.1913 4.91828 28.7633C5.41564 28.1434 6.02352 27.7597 6.79718 27.804C7.18401 27.8188 7.58466 27.9516 7.94386 28.0844C8.71752 28.3943 9.36684 28.9109 9.71223 29.7226C10.0162 30.4457 10.1129 31.2279 10.0852 32.0396C10.0576 32.7922 9.90565 33.5006 9.53263 34.1499C9.10435 34.8878 8.55173 35.4486 7.77807 35.7586C6.93533 36.0832 6.07878 36.098 5.20841 35.9947C4.49001 35.9061 3.81305 35.6995 3.16373 35.3749C2.19665 34.8878 1.5197 34.0762 1.04997 33.0578C0.607878 32.0838 0.442095 31.0065 0.386833 29.9439C0.359202 29.3388 0.386832 28.7338 0.442094 28.1434C0.511171 27.4056 0.63551 26.6824 0.718402 25.9445C0.81511 25.1181 0.925633 24.3064 0.980895 23.4799C1.02234 22.9191 1.02234 22.3583 0.980895 21.7975C0.939449 21.3253 0.856556 20.8383 0.704587 20.4103C0.524986 19.9233 0.234862 19.4658 0 18.9935C0.621693 18.8017 1.27102 18.7574 1.92034 19.0525C3.45385 19.7462 4.26896 21.6942 3.97884 23.3914C3.93739 23.657 3.90976 23.9374 3.8545 24.3064C5.07025 23.657 6.23075 23.0667 7.37743 22.4321C8.13727 22.0189 8.81423 21.4581 9.43592 20.8383C10.251 20.0118 10.9142 19.0525 11.3563 17.9604C11.522 17.5325 11.6878 17.0602 11.674 16.6175C11.6464 16.0272 11.4944 15.4221 11.301 14.8613C11.0523 14.1381 10.6793 13.4888 10.0852 13.0165C9.36685 12.441 8.55174 12.2639 7.66755 12.441C6.58995 12.6476 5.70576 13.1789 5.1117 14.1529C4.71105 14.8022 4.51764 15.5254 4.69724 16.3223C4.86302 17.1045 5.31893 17.6505 5.96826 18.0342C6.53469 18.3737 7.4465 17.9309 7.6261 17.2668C7.73663 16.8684 7.54321 16.4109 7.19783 16.2338C6.78336 16.0272 6.35509 16.1305 6.10641 16.4994C6.06496 16.5584 6.02352 16.6322 5.94063 16.7503C5.78866 16.0567 5.81629 15.4368 6.13404 14.8908C6.68666 13.9168 7.81952 13.5773 8.85567 13.8872C9.47737 14.0791 9.90565 14.5218 10.2234 15.1122C10.7069 15.9976 10.9694 16.9569 10.6379 17.9457C10.2787 19.023 9.62934 19.8937 8.71752 20.5136C7.87478 21.1039 6.94915 21.3548 5.94063 21.1039C4.7525 20.8235 3.90976 20.0118 3.20517 19.0083C2.43151 17.9014 1.86508 16.706 2.01705 15.2745C2.08613 14.6694 2.19665 14.0201 2.44533 13.474C2.9565 12.3377 3.64727 11.3341 4.55909 10.5077C5.08407 10.0354 5.62287 9.57792 6.16167 9.13518C6.74192 8.64817 7.33598 8.17591 7.91623 7.6889C8.28924 7.37898 8.64844 7.05431 8.99383 6.71488C9.56026 6.15407 10.0714 5.549 10.403 4.78158C10.6379 4.2503 10.7622 3.71901 10.7898 3.11393C11.2596 3.39433 11.6464 3.73377 11.9365 4.17651C12.42 4.94392 12.5168 5.78512 12.351 6.65584C12.1576 7.61511 11.7293 8.4268 10.9971 9.04664C10.7208 9.28276 10.4306 9.51889 10.0852 9.79929C11.2457 10.2125 12.3786 10.6257 13.5115 11.0094C14.3956 11.3194 15.3075 11.5112 16.2469 11.526C16.7166 11.526 17.1864 11.4522 17.6561 11.4227C18.3192 11.3932 18.9547 11.2013 19.5626 10.9357C19.9218 10.7733 20.3086 10.5815 20.585 10.3158C21.331 9.56316 21.7593 8.6039 21.9665 7.52656C22.0908 6.8477 22.0632 6.18359 21.7731 5.549C21.0823 4.02893 19.8251 3.46812 18.3469 3.39433C17.7942 3.36482 17.2554 3.55667 16.7581 3.88135C15.6805 4.57497 15.4594 5.74085 15.7634 6.86246C15.8186 7.05431 15.9706 7.23141 16.1226 7.37898C16.4127 7.6889 16.7995 7.5856 17.1587 7.5856C17.4903 7.5856 17.8219 7.23141 17.8357 6.89197C17.8633 6.34593 17.6285 5.94746 17.2554 5.88843C17.062 5.85891 16.8548 5.87367 16.5923 5.85891C16.7857 5.63754 16.9515 5.46045 17.1173 5.28335C17.7113 4.64876 18.4021 4.54545 19.1758 4.84061C20.0876 5.18005 20.8889 6.18359 20.806 7.24616C20.7784 7.67414 20.6678 8.11688 20.5297 8.53011C20.1843 9.50413 19.5626 10.2125 18.5817 10.5372C17.9877 10.729 17.3798 10.7733 16.7581 10.7733C15.7357 10.7586 14.8792 10.3453 14.147 9.6222C13.249 8.73672 13.0417 7.55608 13.0556 6.33117C13.0694 5.74085 13.1937 5.13577 13.318 4.54545C13.6634 3.0549 14.4647 1.93329 15.7634 1.23967C16.7581 0.708383 17.8357 0.546045 18.9271 0.472255C19.383 0.442739 19.8389 0.472255 20.2948 0.531287C21.1652 0.634593 22.0356 0.767414 22.9059 0.885478C23.6105 0.974026 24.3289 1.04782 25.0473 1.12161C25.2131 1.13636 25.3789 1.12161 25.5447 1.12161C25.9591 1.12161 26.3874 1.16588 26.7881 1.09209C27.6308 0.959268 28.4045 0.634593 29.04 0H29.0952C29.1229 0.118064 29.1505 0.236128 29.1781 0.354191C29.3163 1.00354 29.2887 1.65289 28.9985 2.22845C28.3354 3.57143 27.244 4.2503 25.8486 4.32409C25.3098 4.3536 24.7572 4.23554 24.1631 4.19126C24.6881 5.32763 25.1717 6.50827 25.7657 7.62987C26.1664 8.39728 26.6499 9.13518 27.1749 9.79929C27.9486 10.7733 28.9018 11.5555 30.0209 12.072C30.5597 12.3229 31.0847 12.4852 31.6925 12.3967C32.5767 12.2639 33.3918 11.9687 34.124 11.4374C34.8977 10.8766 35.3536 10.0945 35.4365 9.12043C35.547 7.74793 35.0773 6.59681 34.124 5.68182C33.6129 5.18005 32.9774 4.9144 32.2866 4.88489C31.4024 4.85537 30.7255 5.29811 30.2281 6.1098C29.7446 6.92149 30.0761 7.83648 30.9465 8.05785C31.3195 8.1464 31.5958 8.04309 31.7616 7.73318C31.9965 7.29044 31.9827 6.92149 31.7064 6.62633C31.5958 6.50827 31.4991 6.3902 31.3748 6.25738C31.7616 6.25738 32.1484 6.19835 32.5076 6.27214C33.1432 6.3902 33.5714 6.80342 33.8616 7.43802C34.2622 8.30874 34.2484 9.14994 33.7925 9.96163C33.4471 10.5815 32.8807 10.9209 32.2728 11.1865C31.361 11.5702 30.4491 11.585 29.5926 11.039C28.9847 10.6553 28.4321 10.183 27.9762 9.59268C27.4927 8.95809 27.2163 8.23495 27.1335 7.45277C26.9953 6.21311 27.4512 5.18005 28.2249 4.27981C28.8742 3.52715 29.6479 2.96635 30.5044 2.53837C31.8031 1.88902 33.0879 1.93329 34.3589 2.53837C36.0168 3.35006 37.274 4.67828 38.3101 6.24262C39.2357 7.61511 40.189 8.95809 41.3495 10.1387C41.9712 10.7733 42.6896 11.2456 43.56 11.4079C43.7534 11.4374 43.9468 11.4669 44.2231 11.5112C43.9468 11.8654 43.7534 12.1901 43.4909 12.4557C42.7034 13.2527 41.7225 13.3707 40.7278 13.1346C39.5397 12.8542 38.6831 12.0573 38.0614 10.9504C38.0338 10.8914 37.9924 10.8619 37.8957 10.7438C37.5088 11.9097 37.1082 13.0018 36.8042 14.1086C36.5556 15.0089 36.3483 15.9238 36.2654 16.8536C36.1411 18.2261 36.3069 19.5838 36.8042 20.8825C36.9424 21.2515 37.122 21.6352 37.3568 21.9156C37.9785 22.6682 38.8075 23.0815 39.6917 23.3471C40.4653 23.5685 41.239 23.5537 41.9712 23.1553C43.2698 22.4321 43.7948 21.1777 43.8915 19.7019C43.9468 18.905 43.6843 18.1523 43.2146 17.503C42.6896 16.7651 41.3219 16.4256 40.5206 16.7946C39.9127 17.075 39.7884 17.8719 39.8989 18.3294C40.0232 18.8312 40.3272 19.0525 40.7554 19.023C41.1699 18.9935 41.4462 18.7131 41.5153 18.2113C41.5429 18.049 41.5153 17.8867 41.5153 17.7096C42.137 18.0933 42.8278 18.964 42.6205 19.9675C42.4962 20.5726 42.2751 21.0891 41.8607 21.4876C41.2804 22.0484 40.6173 22.3141 39.816 22.137C39.1252 21.9894 38.5173 21.6942 37.9785 21.222C37.2049 20.5283 36.9424 19.5838 36.8871 18.5803C36.8319 17.6063 36.9562 16.647 37.4674 15.7763C37.9647 14.9498 38.6141 14.3595 39.5259 14.0939C40.0785 13.9315 40.6449 13.9168 41.2113 13.9168C41.8192 13.9168 42.3995 14.0496 42.9659 14.2119C44.5547 14.6842 45.6185 15.7763 46.1711 17.4144C46.3921 18.0785 46.475 18.8017 46.5855 19.51C46.7375 20.5431 46.6546 21.5762 46.5303 22.6092C46.3921 23.6718 46.2125 24.7344 46.102 25.7969C46.0329 26.4758 46.0606 27.1694 46.0329 27.863C46.0053 28.5567 46.1435 29.206 46.3921 29.8259C46.475 30.1948 46.7651 30.5342 47 30.8884ZM32.3971 15.186C31.5682 15.3778 30.7393 15.3778 29.8965 15.2302C28.7775 15.0236 27.6999 14.6399 26.7052 14.0496C25.5309 13.356 24.4256 12.559 23.4862 11.5112C23.4171 11.4374 23.348 11.3636 23.2928 11.3194C23.0026 11.7031 22.7402 12.072 22.4362 12.3967C21.8007 13.0903 21.0547 13.6511 20.2396 14.0496C19.5902 14.3743 18.9133 14.6399 18.2225 14.8613C17.1587 15.2007 16.0811 15.3926 14.9621 15.4073H14.2437C14.2299 15.4664 14.2299 15.5106 14.2299 15.5401C14.4095 16.3961 14.3956 17.2668 14.2713 18.1228C14.0503 19.6281 13.4977 21.0301 12.724 22.314C12.1576 23.2586 11.5359 24.1588 10.7622 24.9262C10.6102 25.0738 10.6379 25.1623 10.776 25.2952C11.1352 25.6346 11.5359 25.9298 11.826 26.3282C12.2681 26.9038 12.6964 27.5089 13.0417 28.1582C13.622 29.2208 13.9397 30.4162 14.1608 31.6116C14.2713 32.2166 14.3266 32.8512 14.3818 33.4711C14.4233 33.8843 14.4371 34.2975 14.4647 34.637C15.0588 34.637 15.6667 34.5927 16.2607 34.6517C16.841 34.696 17.4212 34.8141 17.9877 34.9469C18.8304 35.1682 19.6317 35.5372 20.3639 36.039C21.0547 36.5112 21.7454 37.013 22.4086 37.5295C22.8092 37.8394 23.1546 38.2084 23.5414 38.5626C23.7763 38.2527 23.9974 37.9427 24.246 37.6623C24.9644 36.8802 25.8072 36.2751 26.7466 35.8028C28.4321 34.9469 30.2143 34.5779 32.0656 34.5189H32.5767C32.5353 34.2237 32.4662 33.9581 32.4662 33.6924C32.48 33.0579 32.5076 32.4085 32.5767 31.7887C32.7563 30.2834 33.3366 28.9551 34.0826 27.6712C34.6767 26.6381 35.3812 25.6789 36.2102 24.8229C33.2813 22.3583 32.4938 18.9492 32.3971 15.186Z" fill="url(#paint0_linear_2023_203)"/>
<defs>
<linearGradient id="paint0_linear_2023_203" x1="-23.9407" y1="-32.4026" x2="67.9018" y2="64.8758" gradientUnits="userSpaceOnUse">
<stop stop-color="#F7A416"/>
<stop offset="1" stop-color="#C22C18"/>
</linearGradient>
</defs>
</svg>
