<svg width="708" height="203" viewBox="0 0 708 203" fill="none" xmlns="http://www.w3.org/2000/svg">
<path d="M17.9918 173.385V174.846H9.84684V196.398H8.14492V174.846H0V173.385H17.9918Z" fill="white"/>
<path d="M38.4148 173.385L29.7837 187.753H35.2541V188.97H29.419V196.398H27.717V188.97H21.7603V187.753H27.2308L18.5996 173.385H20.4231L28.568 187.022L36.7129 173.385H38.4148Z" fill="white"/>
<path d="M50.4499 173.385C56.1635 173.385 59.5673 176.307 59.5673 181.178C59.5673 186.048 56.1635 188.97 50.4499 188.97H44.0069V196.519H42.3049V173.385H50.4499ZM50.4499 187.387C55.3125 187.387 57.8654 185.074 57.8654 181.178C57.8654 177.281 55.3125 174.846 50.4499 174.846H44.0069V187.387H50.4499Z" fill="white"/>
<path d="M79.8688 174.968H67.4691V185.074H77.4375V186.413H67.4691V196.519H65.7672V186.413H62.2418V185.074H65.7672V173.385H79.7473V174.968H79.8688Z" fill="white"/>
<path d="M93.7273 181.908C99.0762 181.908 101.872 184.343 101.872 189.092C101.872 193.841 98.8331 196.519 93.2411 196.519H84.6099V173.385H86.3118V181.786H93.7273V181.908ZM106.005 196.519V173.385H107.707V196.519H106.005ZM93.2411 195.058C97.739 195.058 100.17 192.988 100.17 189.092C100.17 185.196 97.8606 183.248 93.2411 183.248H86.1902V195.058H93.2411Z" fill="white"/>
<path d="M132.628 173.385H134.33V196.519H132.628V185.561H117.433V196.519H115.731V173.385H117.433V183.978H132.628V173.385Z" fill="white"/>
<path d="M166.91 173.385L157.793 188.483V196.398H156.091V188.605L146.973 173.507H148.797L156.942 187.144L165.087 173.507H166.91V173.385Z" fill="white"/>
<path d="M180.039 171.68C177.122 171.68 175.055 170.219 174.933 167.662H176.271C176.392 169.489 177.851 170.585 180.039 170.585C182.227 170.585 183.686 169.489 183.686 167.662H185.023C185.023 170.219 182.957 171.68 180.039 171.68ZM170.8 196.519V173.385H172.502V193.719L187.941 173.385H189.4V196.519H187.698V176.307L172.259 196.519H170.8Z" fill="white"/>
<path d="M221.615 196.519L212.983 185.561H207.513V196.519H205.811V173.385H207.513V183.978H212.983L221.128 173.385H222.952L214.321 184.587L223.56 196.398H221.615V196.519Z" fill="white"/>
<path d="M229.152 195.058H243.132V196.519H227.45V173.385H242.646V174.846H229.152V183.978H241.187V185.439H229.152V195.058Z" fill="white"/>
<path d="M274.253 173.385H275.955V196.519H248.724V173.385H250.426V194.936H261.61V173.385H263.312V194.936H274.496V173.385H274.253Z" fill="white"/>
<path d="M285.68 195.058H299.66V196.519H284.1V173.385H299.174V174.846H285.68V183.978H297.715V185.439H285.68V195.058Z" fill="white"/>
<path d="M321.907 173.385H323.609V196.519H321.907V185.561H306.711V196.519H305.13V173.385H306.832V183.978H322.028V173.385H321.907Z" fill="white"/>
<path d="M331.753 196.519V173.385H333.455V196.519H331.753Z" fill="white"/>
<path d="M395.211 196.519L387.795 185.561H382.811V196.519H381.231V185.561H376.247L368.831 196.519H366.886L375.031 184.587L367.615 173.385H369.439L376.368 183.978H381.352V173.385H382.933V183.978H387.917L394.846 173.385H396.67L389.254 184.587L397.399 196.519H395.211Z" fill="white"/>
<path d="M401.289 196.519V173.385H402.991V193.719L418.43 173.385H419.889V196.519H418.187V176.307L402.748 196.519H401.289Z" fill="white"/>
<path d="M429.857 173.385H444.688V196.519H442.986V174.968H431.316L431.073 183.491C430.708 192.745 429.249 196.763 425.481 196.763C424.995 196.763 424.508 196.763 423.9 196.519L424.144 194.936C424.508 195.058 424.873 195.058 425.238 195.058C428.155 195.058 429.371 191.771 429.736 183.369L429.857 173.385Z" fill="white"/>
<path d="M462.558 196.641C455.751 196.641 450.766 191.649 450.766 184.952C450.766 178.255 455.751 173.263 462.558 173.263C469.366 173.263 474.35 178.255 474.35 184.952C474.35 191.649 469.244 196.641 462.558 196.641ZM462.558 195.058C468.272 195.058 472.648 190.675 472.648 184.83C472.648 178.986 468.272 174.603 462.558 174.603C456.845 174.603 452.468 178.864 452.468 184.83C452.468 190.797 456.723 195.058 462.558 195.058Z" fill="white"/>
<path d="M489.546 171.68C486.628 171.68 484.562 170.219 484.562 167.662H485.899C486.021 169.489 487.479 170.585 489.668 170.585C491.856 170.585 493.315 169.489 493.315 167.662H494.652C494.53 170.219 492.585 171.68 489.546 171.68ZM480.429 196.519V173.385H482.13V193.719L497.569 173.385H499.028V196.519H497.326V176.307L481.887 196.519H480.429Z" fill="white"/>
<path d="M531.122 196.519L522.49 185.561H517.02V196.519H515.44V173.385H517.141V183.978H522.612L530.757 173.385H532.58L523.949 184.587L533.188 196.398H531.122V196.519Z" fill="white"/>
<path d="M546.804 196.641C539.996 196.641 535.012 191.649 535.012 184.952C535.012 178.255 539.996 173.263 546.804 173.263C553.611 173.263 558.595 178.255 558.595 184.952C558.595 191.649 553.49 196.641 546.804 196.641ZM546.804 195.058C552.517 195.058 556.893 190.675 556.893 184.83C556.893 178.986 552.517 174.603 546.804 174.603C541.09 174.603 536.714 178.864 536.714 184.83C536.714 190.797 540.968 195.058 546.804 195.058Z" fill="white"/>
<path d="M587.65 196.519H586.069V176.794L576.587 193.475H575.736L566.254 176.794V196.519H564.674V173.385H566.011L576.101 191.284L586.191 173.385H587.528L587.65 196.519Z" fill="white"/>
<path d="M614.394 173.385V196.519H612.692V174.968H597.375V196.519H595.673V173.385H614.394Z" fill="white"/>
<path d="M624.484 173.385H639.315V196.519H637.613V174.968H625.943L625.7 183.491C625.335 192.745 623.876 196.763 620.108 196.763C619.622 196.763 619.135 196.763 618.527 196.519L618.771 194.936C619.135 195.058 619.5 195.058 619.865 195.058C622.782 195.058 623.998 191.771 624.363 183.369L624.484 173.385Z" fill="white"/>
<path d="M649.041 195.058H663.021V196.519H647.46V173.385H662.534V174.846H649.041V183.978H661.076V185.439H649.041V195.058Z" fill="white"/>
<path d="M684.295 196.519L675.663 185.561H670.193V196.519H668.613V173.385H670.315V183.978H675.785L683.93 173.385H685.753L677.122 184.587L686.361 196.398H684.295V196.519Z" fill="white"/>
<path d="M699.977 196.641C693.291 196.641 688.185 191.649 688.185 184.952C688.185 178.255 693.169 173.263 699.977 173.263C703.137 173.263 706.055 174.359 708 176.429L707.028 177.525C705.082 175.577 702.773 174.846 700.098 174.846C694.263 174.846 690.008 179.229 690.008 185.074C690.008 190.918 694.385 195.302 700.098 195.302C702.773 195.302 705.082 194.449 707.028 192.501L708 193.597C706.055 195.545 703.137 196.641 699.977 196.641Z" fill="white"/>
<path d="M349.867 202.607V167.906H351.569V202.607H349.867Z" fill="white"/>
<path d="M132.142 140.51C123.268 140.51 115.244 138.684 108.072 135.031C100.9 131.256 95.0646 123.951 90.5666 112.992L85.704 101.182H29.5405L12.2782 139.658H1.33723L63.579 0.121778H73.0611L120.35 112.992C125.699 126.142 132.993 133.204 142.354 134.179V139.414C139.801 140.145 136.397 140.51 132.142 140.51ZM34.0385 91.6847H81.6923L58.4732 36.406L34.0385 91.6847ZM256.626 141.728C248.845 141.728 241.795 139.414 235.473 134.909C229.152 130.282 222.466 122.246 215.658 111.044L194.505 75.7342H186.117V139.536H158.522V27.5176C158.522 20.3338 157.549 15.0981 155.604 11.6889C153.659 8.15786 149.648 6.45323 143.812 6.45323H141.746V0.121778H199.976C214.564 0.121778 227.815 2.80041 239.485 8.15782C251.155 13.5152 256.99 23.8648 256.99 39.0847C256.99 56.7398 245.563 68.4286 222.83 74.1513L244.955 111.166C253.222 125.168 261.975 132.839 271.092 134.422V139.658C269.998 140.267 267.931 140.754 265.014 141.119C261.975 141.484 259.179 141.728 256.626 141.728ZM198.76 67.3328C206.662 67.3328 213.348 65.0194 218.819 60.3926C224.411 55.644 227.207 48.0948 227.207 37.9888C227.207 27.8828 224.411 20.5773 218.94 15.8287C213.47 11.0801 207.027 8.64489 199.733 8.64489C195.6 8.64489 192.439 8.88841 190.251 9.49721L185.996 10.106V67.4546H198.76V67.3328ZM403.234 140.51C394.36 140.51 386.336 138.684 379.164 135.031C371.992 131.256 366.157 123.951 361.659 112.992L356.796 101.182H300.633L283.249 139.658H272.308L334.549 0.121778H344.032L391.321 112.992C396.67 126.142 403.964 133.204 413.324 134.179V139.414C410.771 140.145 407.367 140.51 403.234 140.51ZM305.009 91.6847H352.663L329.565 36.406L305.009 91.6847ZM445.053 139.658C439.947 139.658 436.057 138.927 433.383 137.344C430.708 135.64 428.763 132.961 427.669 129.065C426.575 125.168 425.967 119.446 425.967 112.14V0.121778H453.441V112.14C453.441 119.324 454.413 124.681 456.358 128.212C458.304 131.622 462.315 133.326 468.15 133.326H470.217V139.658H445.053ZM495.624 27.5176C495.624 20.3338 494.652 15.0981 492.707 11.6889C490.762 8.15786 486.75 6.45323 480.915 6.45323H478.848V0.121778H504.134C509.24 0.121778 513.13 0.974016 515.804 2.67864C518.479 4.38327 520.424 7.18379 521.518 11.0801C522.612 14.8546 523.22 20.3338 523.22 27.5176V130.161H596.038V139.658H495.746V27.5176H495.624ZM631.413 83.7703L594.093 27.5176C589.838 21.4296 585.219 16.194 580.113 11.6889C575.129 7.18378 570.509 4.7486 566.011 4.26156V0H588.987C596.159 0 602.602 2.31344 608.438 6.81853C614.394 11.3236 619.378 16.8028 623.39 23.256L652.08 66.6023L693.047 0H706.784L658.887 78.0476V139.536H631.413V83.7703Z" fill="white"/>
</svg>
