<svg width="27" height="27" viewBox="0 0 27 27" fill="none" xmlns="http://www.w3.org/2000/svg">
<path d="M20.1153 0L6.7051 0C3.01762 0 0 3.01762 0 6.7051L0 20.1159C0 23.8024 3.01762 26.821 6.7051 26.821H20.1153C23.8028 26.821 26.8204 23.8024 26.8204 20.1159V6.7051C26.8204 3.01762 23.8028 0 20.1153 0ZM24.5852 20.1159C24.5852 22.5801 22.5808 24.5859 20.1153 24.5859H6.7051C4.24065 24.5859 2.23514 22.5801 2.23514 20.1159V6.7051C2.23514 4.24032 4.24065 2.23514 6.7051 2.23514H20.1153C22.5808 2.23514 24.5852 4.24032 24.5852 6.7051V20.1159Z" fill="white"/>
<path d="M20.1153 0L6.7051 0C3.01762 0 0 3.01762 0 6.7051L0 20.1159C0 23.8024 3.01762 26.821 6.7051 26.821H20.1153C23.8028 26.821 26.8204 23.8024 26.8204 20.1159V6.7051C26.8204 3.01762 23.8028 0 20.1153 0ZM24.5852 20.1159C24.5852 22.5801 22.5808 24.5859 20.1153 24.5859H6.7051C4.24065 24.5859 2.23514 22.5801 2.23514 20.1159V6.7051C2.23514 4.24032 4.24065 2.23514 6.7051 2.23514H20.1153C22.5808 2.23514 24.5852 4.24032 24.5852 6.7051V20.1159Z" fill="white"/>
<path d="M20.6782 7.82618C21.604 7.82618 22.3545 7.07569 22.3545 6.14991C22.3545 5.22413 21.604 4.47363 20.6782 4.47363C19.7524 4.47363 19.002 5.22413 19.002 6.14991C19.002 7.07569 19.7524 7.82618 20.6782 7.82618Z" fill="white"/>
<path d="M20.6782 7.82618C21.604 7.82618 22.3545 7.07569 22.3545 6.14991C22.3545 5.22413 21.604 4.47363 20.6782 4.47363C19.7524 4.47363 19.002 5.22413 19.002 6.14991C19.002 7.07569 19.7524 7.82618 20.6782 7.82618Z" fill="white"/>
<path d="M13.4048 6.69629C9.70092 6.69629 6.69974 9.6978 6.69974 13.4014C6.69974 17.1036 9.70092 20.1071 13.4048 20.1071C17.1077 20.1071 20.1099 17.1036 20.1099 13.4014C20.1099 9.6978 17.1077 6.69629 13.4048 6.69629ZM13.4048 17.872C10.9363 17.872 8.93488 15.8706 8.93488 13.4014C8.93488 10.9322 10.9363 8.93143 13.4048 8.93143C15.8733 8.93143 17.8748 10.9322 17.8748 13.4014C17.8748 15.8706 15.8733 17.872 13.4048 17.872Z" fill="white"/>
<path d="M13.4048 6.69629C9.70092 6.69629 6.69974 9.6978 6.69974 13.4014C6.69974 17.1036 9.70092 20.1071 13.4048 20.1071C17.1077 20.1071 20.1099 17.1036 20.1099 13.4014C20.1099 9.6978 17.1077 6.69629 13.4048 6.69629ZM13.4048 17.872C10.9363 17.872 8.93488 15.8706 8.93488 13.4014C8.93488 10.9322 10.9363 8.93143 13.4048 8.93143C15.8733 8.93143 17.8748 10.9322 17.8748 13.4014C17.8748 15.8706 15.8733 17.872 13.4048 17.872Z" fill="white"/>
</svg>
